<?xml version="1.0" encoding="UTF-8"?>
<svg width="15px" height="15px" viewBox="0 0 15 15" version="1.1" xmlns="http://www.w3.org/2000/svg" xmlns:xlink="http://www.w3.org/1999/xlink">
    <!-- Generator: sketchtool 47.1 (45422) - http://www.bohemiancoding.com/sketch -->
    <title>45FA526F-2551-4311-A06B-A7437A0F66BA</title>
    <desc>Created with sketchtool.</desc>
    <defs></defs>
    <g id="Styleguide" stroke="none" stroke-width="1" fill="none" fill-rule="evenodd">
        <g id="Icons" transform="translate(-57.000000, -92.000000)" fill="#B8B8B8">
            <path d="M64.5,92 C65.5526368,92.0292399 66.4298211,92.3947333 67.1315789,93.0964912 C67.8333368,93.7982491 68.1842105,94.6827432 68.1842105,95.75 C68.1842105,96.8172568 67.8333368,97.7017509 67.1315789,98.4035088 C66.4298211,99.1052667 65.5526368,99.4561404 64.5,99.4561404 C63.4473632,99.4561404 62.5701789,99.1052667 61.8684211,98.4035088 C61.1666632,97.7017509 60.8157895,96.8172568 60.8157895,95.75 C60.8157895,94.6827432 61.1666632,93.7982491 61.8684211,93.0964912 C62.5701789,92.3947333 63.4473632,92.0292399 64.5,92 Z M64.5,101.385965 C66.6345136,101.415205 68.4035018,101.780698 69.8070175,102.482456 C71.2105333,103.184214 71.9415202,104.061398 72,105.114035 L72,107 L57,107 L57,105.114035 C57.0584798,104.061398 57.7894667,103.184214 59.1929825,102.482456 C60.5964982,101.780698 62.3654864,101.415205 64.5,101.385965 Z" id=""></path>
        </g>
    </g>
</svg>