<?xml version="1.0" encoding="UTF-8"?>
<svg width="15px" height="15px" viewBox="0 0 15 15" version="1.1" xmlns="http://www.w3.org/2000/svg" xmlns:xlink="http://www.w3.org/1999/xlink">
    <!-- Generator: sketchtool 47.1 (45422) - http://www.bohemiancoding.com/sketch -->
    <title>AA21F994-38AF-4FA7-97F8-EC729497038E</title>
    <desc>Created with sketchtool.</desc>
    <defs></defs>
    <g id="Styleguide" stroke="none" stroke-width="1" fill="none" fill-rule="evenodd">
        <g id="Icons" transform="translate(-57.000000, -132.000000)" fill="#4F4F4F">
            <path d="M64.5,132 C65.5526368,132.02924 66.4298211,132.394733 67.1315789,133.096491 C67.8333368,133.798249 68.1842105,134.682743 68.1842105,135.75 C68.1842105,136.817257 67.8333368,137.701751 67.1315789,138.403509 C66.4298211,139.105267 65.5526368,139.45614 64.5,139.45614 C63.4473632,139.45614 62.5701789,139.105267 61.8684211,138.403509 C61.1666632,137.701751 60.8157895,136.817257 60.8157895,135.75 C60.8157895,134.682743 61.1666632,133.798249 61.8684211,133.096491 C62.5701789,132.394733 63.4473632,132.02924 64.5,132 Z M64.5,141.385965 C66.6345136,141.415205 68.4035018,141.780698 69.8070175,142.482456 C71.2105333,143.184214 71.9415202,144.061398 72,145.114035 L72,147 L57,147 L57,145.114035 C57.0584798,144.061398 57.7894667,143.184214 59.1929825,142.482456 C60.5964982,141.780698 62.3654864,141.415205 64.5,141.385965 Z" id="-copy-2"></path>
        </g>
    </g>
</svg>