<?xml version="1.0" encoding="UTF-8"?>
<svg width="40px" height="26px" viewBox="0 0 40 26" version="1.1" xmlns="http://www.w3.org/2000/svg" xmlns:xlink="http://www.w3.org/1999/xlink">
    <!-- Generator: sketchtool 47.1 (45422) - http://www.bohemiancoding.com/sketch -->
    <title>0D253DF5-66DB-4DD5-9F18-40B8E5D7F605</title>
    <desc>Created with sketchtool.</desc>
    <defs></defs>
    <g id="Styleguide" stroke="none" stroke-width="1" fill="none" fill-rule="evenodd">
        <g transform="translate(-334.000000, -1733.000000)" id="Amex">
            <g transform="translate(334.000000, 1733.000000)">
                <rect id="Rectangle-2" fill="#3A99D6" x="0" y="0" width="40" height="26" rx="3"></rect>
                <path d="M6.06289219,8 L2,16.9910456 L6.86385109,16.9910456 L7.46682648,15.5574984 L8.84509624,15.5574984 L9.44807164,16.9910456 L14.801805,16.9910456 L14.801805,15.8969188 L15.278855,16.9910456 L18.0482268,16.9910456 L18.5252767,15.8737926 L18.5252767,16.9910456 L29.6595925,16.9910456 L31.0134668,15.5947261 L32.2811817,16.9910456 L38,17.0026088 L33.9242755,12.5206233 L38,8 L32.3698794,8 L31.0519636,9.370514 L29.8241557,8 L17.7114856,8 L16.6713671,10.3206656 L15.6068533,8 L10.7531552,8 L10.7531552,9.0568991 L10.213213,8 C10.213213,8 6.06289219,8 6.06289219,8 Z M7.0040189,9.27673976 L9.37488543,9.27673976 L12.0698019,15.3736163 L12.0698019,9.27673976 L14.6669957,9.27673976 L16.7485017,13.6481703 L18.6668547,9.27673976 L21.2510752,9.27673976 L21.2510752,15.7284072 L19.6786293,15.7284072 L19.6657971,10.6729183 L17.3733343,15.7284072 L15.9667207,15.7284072 L13.6614257,10.6729183 L13.6614257,15.7284072 L10.426567,15.7284072 L9.81329761,14.2820278 L6.50003525,14.2820278 L5.88803497,15.7271381 L4.15483325,15.7271381 C4.15483325,15.7271381 7.0040189,9.27673976 7.0040189,9.27673976 Z M22.6896989,9.27673976 L29.0835507,9.27673976 L31.0391314,11.3891278 L33.0577452,9.27673976 L35.0133258,9.27673976 L32.0420221,12.5193542 L35.0133258,15.7245999 L32.9690475,15.7245999 L31.0134668,13.5876754 L28.984559,15.7245999 L22.6896989,15.7245999 L22.6896989,9.27673976 L22.6896989,9.27673976 Z M8.1573715,10.3683283 L7.06578298,12.9449341 L9.2476909,12.9449341 L8.1573715,10.3683283 Z M24.2686315,10.6125643 L24.2686315,11.7903123 L27.756751,11.7903123 L27.756751,13.1030106 L24.2686315,13.1030106 L24.2686315,14.3887753 L28.1810618,14.3887753 L29.9990129,12.4949588 L28.2581964,10.6114362 L24.2686315,10.6114362 L24.2686315,10.6125643 Z" id="Shape" fill="#FFFFFF" fill-rule="nonzero"></path>
            </g>
        </g>
    </g>
</svg>