<?xml version="1.0" encoding="UTF-8"?>
<svg width="16px" height="17px" viewBox="0 0 16 17" version="1.1" xmlns="http://www.w3.org/2000/svg" xmlns:xlink="http://www.w3.org/1999/xlink">
    <!-- Generator: sketchtool 47.1 (45422) - http://www.bohemiancoding.com/sketch -->
    <title>90502617-744C-4090-B3F3-17A611BA8FDB</title>
    <desc>Created with sketchtool.</desc>
    <defs></defs>
    <g id="My-Profile" stroke="none" stroke-width="1" fill="none" fill-rule="evenodd">
        <g id="Profile-Payments-Subscription-Settings" transform="translate(-397.000000, -325.000000)" fill="#B8B8B8">
            <path d="M410.820312,340.320312 L410.820312,331.179688 L399.179688,331.179688 L399.179688,340.320312 L410.820312,340.320312 Z M408.320312,325.320312 L410,325.320312 L410,327 L410.820312,327 C411.289065,327 411.686196,327.156248 412.011719,327.46875 C412.337241,327.781252 412.5,328.184893 412.5,328.679688 L412.5,340.320312 C412.5,340.789065 412.337241,341.186196 412.011719,341.511719 C411.686196,341.837241 411.289065,342 410.820312,342 L399.179688,342 C398.710935,342 398.313804,341.837241 397.988281,341.511719 C397.662759,341.186196 397.5,340.789065 397.5,340.320312 L397.5,328.679688 C397.5,328.184893 397.656248,327.781252 397.96875,327.46875 C398.281252,327.156248 398.684893,327 399.179688,327 L400,327 L400,325.320312 L401.679688,325.320312 L401.679688,327 L408.320312,327 L408.320312,325.320312 Z" id=""></path>
        </g>
    </g>
</svg>