<svg xmlns="http://www.w3.org/2000/svg" width="109" height="109" viewBox="0 0 109 109">
    <g fill="#EAEAEA" fill-rule="nonzero">
        <path d="M106.729 105H2.27C1.017 105 0 105.896 0 107s1.017 2 2.27 2h104.46c1.253 0 2.27-.896 2.27-2s-1.018-2-2.271-2z"/>
        <path d="M19.75 77H6.25C5.008 77 4 78.024 4 79.286v27.428C4 107.976 5.008 109 6.25 109h13.5c1.242 0 2.25-1.024 2.25-2.286V79.286C22 78.024 20.992 77 19.75 77zm-2.25 27.429h-9V81.57h9v22.858zM47.75 55h-13.5A2.25 2.25 0 0 0 32 57.25v49.5a2.25 2.25 0 0 0 2.25 2.25h13.5a2.25 2.25 0 0 0 2.25-2.25v-49.5A2.25 2.25 0 0 0 47.75 55zm-2.25 49.5h-9v-45h9v45zM74.75 64h-13.5A2.25 2.25 0 0 0 59 66.25v40.5a2.25 2.25 0 0 0 2.25 2.25h13.5a2.25 2.25 0 0 0 2.25-2.25v-40.5A2.25 2.25 0 0 0 74.75 64zm-2.25 40.5h-9v-36h9v36zM101.75 36h-13.5C87.008 36 86 37.022 86 38.281v68.438c0 1.259 1.008 2.281 2.25 2.281h13.5c1.242 0 2.25-1.022 2.25-2.281V38.28c0-1.26-1.008-2.281-2.25-2.281zm-2.25 68.437h-9V40.562h9v63.875zM13 41c-4.964 0-9 4.036-9 9s4.036 9 9 9 9-4.036 9-9-4.036-9-9-9zm0 13.5c-2.484 0-4.5-2.02-4.5-4.5s2.016-4.5 4.5-4.5 4.5 2.02 4.5 4.5-2.016 4.5-4.5 4.5zM41 18c-4.964 0-9 4.036-9 9s4.036 9 9 9 9-4.036 9-9-4.036-9-9-9zm0 13.5c-2.484 0-4.5-2.02-4.5-4.5s2.016-4.5 4.5-4.5 4.5 2.02 4.5 4.5-2.016 4.5-4.5 4.5zM68 27c-4.964 0-9 4.036-9 9s4.036 9 9 9 9-4.036 9-9-4.036-9-9-9zm0 13.5c-2.484 0-4.5-2.02-4.5-4.5s2.016-4.5 4.5-4.5 4.5 2.02 4.5 4.5-2.016 4.5-4.5 4.5zM95 0c-4.964 0-9 4.036-9 9s4.036 9 9 9 9-4.036 9-9-4.036-9-9-9zm0 13.5c-2.484 0-4.5-2.02-4.5-4.5s2.016-4.5 4.5-4.5 4.5 2.02 4.5 4.5-2.016 4.5-4.5 4.5z"/>
        <path d="M91.34 12.66a2.256 2.256 0 0 0-3.187 0L70.659 30.153c-.879.879-.879 2.308 0 3.188a2.265 2.265 0 0 0 1.596.658c.573 0 1.15-.216 1.592-.658l17.494-17.495c.879-.879.879-2.308 0-3.188zM62.36 31.395l-14.489-4.3c-1.214-.367-2.445.366-2.783 1.614-.343 1.25.351 2.545 1.547 2.902l14.49 4.3c.207.06.415.089.618.089.983 0 1.885-.671 2.17-1.704.342-1.244-.352-2.545-1.552-2.901zM37.495 29.846c-.794-.97-2.242-1.128-3.238-.36L16.87 42.997a2.207 2.207 0 0 0-.365 3.16c.457.556 1.13.844 1.804.844.502 0 1.01-.162 1.434-.485l17.387-13.51a2.207 2.207 0 0 0 .365-3.159z"/>
    </g>
</svg>
