<svg xmlns="http://www.w3.org/2000/svg" width="10" height="16" viewBox="0 0 10 16">
    <path fill-rule="evenodd" d="M8.5 0c.417 0 .77.146 1.062.438.292.291.438.645.438 1.062v13c0 .417-.146.77-.438 1.062A1.447 1.447 0 0 1 8.5 16h-7c-.417 0-.77-.146-1.063-.438A1.447 1.447 0 0 1 0 14.5v-13C0 1.083.146.73.437.438A1.447 1.447 0 0 1 1.5 0h7zM5 15c.27 0 .505-.099.703-.297A.961.961 0 0 0 6 14a.961.961 0 0 0-.297-.703A.961.961 0 0 0 5 13a.961.961 0 0 0-.703.297A.961.961 0 0 0 4 14c0 .27.099.505.297.703A.961.961 0 0 0 5 15zm3.5-3.375v-9.75a.362.362 0 0 0-.11-.266.362.362 0 0 0-.265-.109h-6.25a.362.362 0 0 0-.266.11.362.362 0 0 0-.109.265v9.75c0 .104.036.193.11.266.072.073.16.109.265.109h6.25a.362.362 0 0 0 .266-.11.362.362 0 0 0 .109-.265z"/>
</svg>
