<svg xmlns="http://www.w3.org/2000/svg" width="16" height="12" viewBox="0 0 16 12">
    <path fill-rule="evenodd" d="M14.5 0c.417 0 .77.146 1.062.438.292.291.438.645.438 1.062v9c0 .417-.146.77-.438 1.063A1.447 1.447 0 0 1 14.5 12h-13c-.417 0-.77-.146-1.063-.437A1.447 1.447 0 0 1 0 10.5v-9C0 1.083.146.73.437.438A1.447 1.447 0 0 1 1.5 0h13zm0 1.5h-13v1.281c.73.584 2.135 1.688 4.219 3.313l.281.25c.417.354.75.604 1 .75.396.27.73.406 1 .406s.604-.135 1-.406c.25-.146.583-.396 1-.75l.281-.25c2.084-1.604 3.49-2.709 4.219-3.313V1.5zm-13 9h13V4.688l-3.625 2.875c-.52.437-.948.75-1.281.937C9.03 8.833 8.5 9 8 9s-1.042-.167-1.625-.5c-.313-.187-.74-.5-1.281-.937L1.5 4.688V10.5z"/>
</svg>
