<svg xmlns="http://www.w3.org/2000/svg" width="16" height="16" viewBox="0 0 16 16">
    <path fill-rule="evenodd" d="M13.219 9.094c.958.27 1.687.823 2.187 1.656.396.625.594 1.302.594 2.031v.782c0 .666-.24 1.24-.719 1.718-.479.48-1.052.719-1.719.719H2.437c-.666 0-1.24-.24-1.718-.719A2.345 2.345 0 0 1 0 13.563v-.782c0-.729.198-1.416.594-2.062.5-.813 1.229-1.354 2.187-1.625l.656-.188a5.466 5.466 0 0 1-1.062-3.281c0-1.02.25-1.964.75-2.828A5.514 5.514 0 0 1 5.172.75 5.55 5.55 0 0 1 8 0c1.02 0 1.964.25 2.828.75a5.514 5.514 0 0 1 2.047 2.047c.5.864.75 1.807.75 2.828a5.466 5.466 0 0 1-1.063 3.281l.657.188zM8 1.5c-.75 0-1.438.188-2.063.563a4.309 4.309 0 0 0-1.5 1.5 3.934 3.934 0 0 0-.562 2.062c0 .75.187 1.438.562 2.063a4.309 4.309 0 0 0 1.5 1.5A3.934 3.934 0 0 0 8 9.75c.75 0 1.437-.187 2.062-.562a4.309 4.309 0 0 0 1.5-1.5 3.934 3.934 0 0 0 .563-2.063c0-.75-.188-1.437-.563-2.062a4.309 4.309 0 0 0-1.5-1.5A3.934 3.934 0 0 0 8 1.5zm6.5 12.063v-.782c0-.52-.156-.99-.469-1.406a2.285 2.285 0 0 0-1.219-.844l-1.437-.406A5.485 5.485 0 0 1 8 11.25a5.485 5.485 0 0 1-3.375-1.125l-1.438.406c-.5.146-.906.427-1.218.844a2.285 2.285 0 0 0-.469 1.406v.782a.91.91 0 0 0 .937.937h11.125a.91.91 0 0 0 .672-.266.91.91 0 0 0 .266-.671z"/>
</svg>
