<?xml version="1.0" encoding="UTF-8"?>
<svg width="16px" height="16px" viewBox="0 0 16 16" version="1.1" xmlns="http://www.w3.org/2000/svg" xmlns:xlink="http://www.w3.org/1999/xlink">
    <!-- Generator: sketchtool 47.1 (45422) - http://www.bohemiancoding.com/sketch -->
    <title>6C7716AD-C380-4168-9337-6D5A89AF3CE8</title>
    <desc>Created with sketchtool.</desc>
    <defs></defs>
    <g id="Styleguide" stroke="none" stroke-width="1" fill="none" fill-rule="evenodd">
        <g id="Icons" transform="translate(-92.000000, -132.000000)" fill="#4F4F4F">
            <path d="M108,139.125 L100.875,139.125 L100.875,132 C102.902788,132.055556 104.583327,132.749993 105.916667,134.083333 C107.250007,135.416673 107.944444,137.097212 108,139.125 Z M106.208333,140.875 C106.208333,142.125006 105.923614,143.263884 105.354167,144.291667 C104.784719,145.31945 104.013894,146.166663 103.041667,146.833333 L99.625,140.875 L106.208333,140.875 Z M99.125,148 C97.8749938,148 96.7361162,147.715281 95.7083333,147.145833 C94.6805504,146.576386 93.8333367,145.80556 93.1666667,144.833333 L98.9583333,141.5 L102.291667,147.25 C101.31944,147.750002 100.263895,148 99.125,148 Z M92,140.875 C92.0555558,138.87499 92.7499933,137.201396 94.0833333,135.854167 C95.4166733,134.506938 97.0972121,133.819445 99.125,133.791667 L99.125,140.375 L92.75,144.041667 C92.2499975,143.097217 92,142.041673 92,140.875 Z" id="-copy-2"></path>
        </g>
    </g>
</svg>