<?xml version="1.0" encoding="UTF-8"?>
<svg width="16px" height="16px" viewBox="0 0 16 16" version="1.1" xmlns="http://www.w3.org/2000/svg" xmlns:xlink="http://www.w3.org/1999/xlink">
    <!-- Generator: sketchtool 47.1 (45422) - http://www.bohemiancoding.com/sketch -->
    <title>F242BFBF-EC77-4AC7-97F8-3D4C83B81506</title>
    <desc>Created with sketchtool.</desc>
    <defs></defs>
    <g id="Styleguide" stroke="none" stroke-width="1" fill="none" fill-rule="evenodd">
        <g id="Icons" transform="translate(-92.000000, -92.000000)" fill="#B8B8B8">
            <path d="M108,99.125 L100.875,99.125 L100.875,92 C102.902788,92.0555558 104.583327,92.7499933 105.916667,94.0833333 C107.250007,95.4166733 107.944444,97.0972121 108,99.125 Z M106.208333,100.875 C106.208333,102.125006 105.923614,103.263884 105.354167,104.291667 C104.784719,105.31945 104.013894,106.166663 103.041667,106.833333 L99.625,100.875 L106.208333,100.875 Z M99.125,108 C97.8749938,108 96.7361162,107.715281 95.7083333,107.145833 C94.6805504,106.576386 93.8333367,105.80556 93.1666667,104.833333 L98.9583333,101.5 L102.291667,107.25 C101.31944,107.750002 100.263895,108 99.125,108 Z M92,100.875 C92.0555558,98.87499 92.7499933,97.2013956 94.0833333,95.8541667 C95.4166733,94.5069377 97.0972121,93.8194446 99.125,93.7916667 L99.125,100.375 L92.75,104.041667 C92.2499975,103.097217 92,102.041673 92,100.875 Z" id=""></path>
        </g>
    </g>
</svg>