<?xml version="1.0" encoding="UTF-8"?>
<svg width="40px" height="26px" viewBox="0 0 40 26" version="1.1" xmlns="http://www.w3.org/2000/svg" xmlns:xlink="http://www.w3.org/1999/xlink">
    <!-- Generator: sketchtool 47.1 (45422) - http://www.bohemiancoding.com/sketch -->
    <title>BF7A9B70-13B0-49CC-B4C0-912751FB6798</title>
    <desc>Created with sketchtool.</desc>
    <defs>
        <path d="M40,12.2857143 L40,23 L40,23 C40,24.6568542 38.6568542,26 37,26 L16,26 L40,12.2857143 Z" id="path-1"></path>
    </defs>
    <g id="Styleguide" stroke="none" stroke-width="1" fill="none" fill-rule="evenodd">
        <g transform="translate(-279.000000, -1733.000000)" id="Discover">
            <g transform="translate(279.000000, 1733.000000)">
                <rect id="Rectangle-2" fill="#E9EDEF" x="0" y="0" width="40" height="26" rx="3"></rect>
                <g id="Rectangle-2">
                    <use fill="#F7F7F7" fill-rule="evenodd" xlink:href="#path-1"></use>
                    <path stroke="#EBEBEB" stroke-width="1" d="M39.5,13.1473041 L17.8827822,25.5 L37,25.5 C38.3807119,25.5 39.5,24.3807119 39.5,23 L39.5,13.1473041 Z"></path>
                </g>
                <path d="M6.74276588,4.01579351 L4,4.01579351 L4,13.0203177 L6.72808284,13.0203177 C8.17590392,13.0203177 9.22333473,12.6974144 10.1413328,11.9807836 C11.2303449,11.1302782 11.8772621,9.84668501 11.8772621,8.52138705 C11.8772621,5.86301777 9.76673034,4.01579351 6.74276588,4.01579351 Z M8.77457683,10.2178326 C8.28744562,10.5958898 7.66088729,10.7577734 6.66404508,10.7577734 L6.25119274,10.7577734 L6.25119274,6.27587011 L6.66404508,6.27587011 C7.6607639,6.27587011 8.26375535,6.4277593 8.77457683,6.82259716 C9.30785471,7.22989709 9.62619274,7.85978686 9.62619274,8.51003546 C9.62619274,9.16040745 9.30773133,9.8139875 8.77457683,10.2178326 Z M13.0045242,13.0190838 L15.2388129,13.0190838 L15.2388129,4 L13.0045242,4 L13.0045242,13.0190838 Z M20.311369,7.48641831 C19.1695472,7.11292637 18.8343052,6.8643019 18.8343052,6.40073758 C18.8343052,5.85845245 19.4328547,5.44226867 20.2517731,5.44226867 C20.8221904,5.44226867 21.2889628,5.64931178 21.7874456,6.14088491 L22.7797225,4.99005594 C21.9606807,4.35560085 20.9830869,4.03158703 19.9154206,4.03158703 C18.1941743,4.03158703 16.8778836,5.09246701 16.8778836,6.50203817 C16.8778836,7.69457189 17.4909928,8.30200526 19.2741792,8.8713121 C20.0189422,9.10414306 20.3981099,9.25825321 20.5881256,9.36411911 C20.9684038,9.58461138 21.1596534,9.89283168 21.1596534,10.2550954 C21.1596534,10.9559326 20.5296403,11.4723065 19.6825897,11.4723065 C18.7769303,11.4723065 18.0468504,11.0729033 17.6080869,10.3214775 L16.382979,11.3722398 C17.2559408,12.5096196 18.3089241,13.0169863 19.7557581,13.0169863 C21.7278498,13.0169863 23.1149645,11.8503638 23.1149645,10.1808165 C23.1148412,8.80937192 22.4735998,8.18836599 20.311369,7.48641831 Z M26.5089661,8.50448305 C26.5089661,7.10268526 27.6395596,5.99689248 29.0784969,5.99689248 C29.8074663,5.99689248 30.3632006,6.23762019 31,6.81704475 L30.9988895,4.54228512 C30.2485742,4.17101415 29.6286788,4.016904 28.8918126,4.016904 C26.2976045,4.016904 24.2185364,6.01490696 24.2185364,8.51460078 C24.2185364,11.0435373 26.2468925,13.0010694 28.8535627,13.0010694 C29.5904288,13.0010694 30.222663,12.8604084 30.9988895,12.500489 L31,10.2246189 C30.3857804,10.7950362 29.8446057,11.0245357 29.1482104,11.0245357 C27.6047646,11.0245357 26.5089661,9.98278068 26.5089661,8.50448305 Z" id="Shape" fill="#324D5B" fill-rule="nonzero"></path>
            </g>
        </g>
    </g>
</svg>