<svg xmlns="http://www.w3.org/2000/svg" width="72" height="98" viewBox="0 0 72 98">
    <g fill="#EAEAEA" fill-rule="nonzero">
        <path d="M11.504 6C12.33 6 13 5.328 13 4.5S12.33 3 11.504 3h-.017C10.661 3 10 3.672 10 4.5S10.676 6 11.504 6zM53.504 10C54.33 10 55 9.328 55 8.5S54.33 7 53.504 7h-.017C52.661 7 52 7.672 52 8.5s.676 1.5 1.504 1.5zM54.036 75.423a1.649 1.649 0 0 0 1.957 1.263l11.37-2.403.29 1.355-1.907.531a1.641 1.641 0 0 0-1.142 2.025 1.651 1.651 0 0 0 2.035 1.135l1.702-.476.394 1.848a1.651 1.651 0 0 0 1.959 1.263 1.642 1.642 0 0 0 1.27-1.946l-1.374-6.42a3.296 3.296 0 0 0-3.912-2.526l-11.372 2.405a1.642 1.642 0 0 0-1.27 1.946zM23.5 5C24.88 5 26 3.878 26 2.5S24.88 0 23.5 0 21 1.122 21 2.5 22.12 5 23.5 5zM35.614 68C46.304 68 55 59.304 55 48.615a1.616 1.616 0 0 0-3.23 0c0 8.908-7.249 16.154-16.156 16.154a1.615 1.615 0 0 0 0 3.231zM10.5 20c1.929 0 3.5-1.57 3.5-3.5S12.429 13 10.5 13C8.57 13 7 14.57 7 16.5S8.57 20 10.5 20zM21.01 91.253L4.629 94.72l-.234-1.096 1.989-.556a1.64 1.64 0 0 0 1.14-2.022 1.657 1.657 0 0 0-2.032-1.137l-1.783.5-.448-2.107a1.645 1.645 0 0 0-1.954-1.264 1.641 1.641 0 0 0-1.271 1.945l1.37 6.42c.182.857.69 1.59 1.43 2.067a3.28 3.28 0 0 0 2.478.456l16.38-3.465a1.641 1.641 0 0 0 1.27-1.946 1.647 1.647 0 0 0-1.954-1.262zM69.406 84.393l-26.361-5.481c-.887-.186-1.755.367-1.943 1.234-.187.865.377 1.716 1.261 1.9l26.36 5.48-.34 1.566-6.587-1.29c-.888-.173-1.751.388-1.928 1.256-.179.869.398 1.713 1.284 1.886l6.55 1.282-.34 1.57L3.277 80.471l.412-1.898 2.887.616c.117.026.234.037.352.037.752 0 1.431-.51 1.597-1.26.193-.863-.367-1.718-1.25-1.907l-2.906-.622.267-1.235 9.73 2.024c.88.185 1.752-.369 1.942-1.234a1.602 1.602 0 0 0-1.262-1.9l-9.73-2.022c-1.756-.366-3.507.74-3.884 2.467l-1.36 6.267c-.377 1.727.754 3.434 2.522 3.802l64.088 13.325c.227.046.454.069.678.069 1.512 0 2.876-1.035 3.205-2.54l.674-3.093c.006-.027.024-.048.03-.077.006-.022-.003-.042 0-.064l.66-3.031c.374-1.727-.756-3.434-2.523-3.802z"/>
        <path d="M27.037 82.32c-.188.906.357 1.803 1.221 2.001l15.8 3.639c.114.027.229.04.344.04.735 0 1.397-.536 1.56-1.32.19-.906-.355-1.803-1.219-2.001l-15.8-3.639c-.85-.201-1.717.373-1.906 1.28zM36.498 78C52.214 78 66 64.3 66 48.68c0-13.484-5.826-21.3-11.995-29.575-3.919-5.256-7.968-10.69-11.077-18.104-.21-.5-.658-.865-1.193-.97a1.65 1.65 0 0 0-1.477.446C34.65 6.05 31.295 15.74 29.63 21.855a41.573 41.573 0 0 1-1.325-10.453c0-.658-.4-1.253-1.013-1.505a1.644 1.644 0 0 0-1.785.353C17.064 18.643 7 32.122 7 48.68 7 64.3 20.785 78 36.498 78zM25.193 15.293c.672 7.849 3.163 12.883 3.285 13.126.314.627.991.98 1.698.885.698-.1 1.255-.63 1.38-1.321.03-.161 2.82-15.064 9.392-23.372 3.081 6.584 6.808 11.583 10.423 16.433 6.09 8.17 11.351 15.227 11.351 27.636 0 13.64-12.498 26.062-26.223 26.062-13.723 0-26.221-12.422-26.221-26.062 0-13.778 7.593-25.392 14.915-33.387z"/>
        <path d="M28.88 66.892a1.552 1.552 0 0 0 2.013-.885 1.56 1.56 0 0 0-.88-2.019 15.461 15.461 0 0 1-5.36-3.529 1.549 1.549 0 0 0-2.196-.005 1.563 1.563 0 0 0-.003 2.206 18.569 18.569 0 0 0 6.426 4.232z"/>
    </g>
</svg>
