<svg xmlns="http://www.w3.org/2000/svg" width="16" height="15" viewBox="0 0 16 15">
    <path fill="#B8B8B8" fill-rule="evenodd" d="M8 0c2.135.052 3.906.781 5.313 2.188C14.719 3.593 15.447 5.364 15.5 7.5c-.052 2.135-.781 3.906-2.188 5.313C11.906 14.219 10.136 14.947 8 15c-2.135-.052-3.906-.781-5.313-2.188C1.282 11.406.553 9.636.5 7.5c.052-2.135.781-3.906 2.188-5.313C4.093.782 5.864.053 8 0zM2.96 4.57c-.806 1.459-1.008 2.937-.605 4.434.404 1.497 1.31 2.676 2.715 3.535 1.64.39 3.314-.885 5.02-3.828 1.706-2.943 1.986-5.026.84-6.25-1.459-.807-2.937-1.01-4.434-.606C5 2.26 3.82 3.165 2.961 4.57z"/>
</svg>
