<svg xmlns="http://www.w3.org/2000/svg" width="18" height="18" viewBox="0 0 18 18">
    <g fill="none" fill-rule="evenodd">
        <circle cx="9" cy="9" r="9" fill="#66C05F"/>
        <path fill="#FFF" d="M7.327 6.84c.044-.965.619-1.448 1.577-1.448.914 0 1.519.398 1.519 1.222 0 1.718-2.05 1.733-2.05 4.02h1.298C9.67 8.716 12 8.616 12 6.372 12 4.824 10.82 4 9.052 4 7.224 4 6.059 5.023 6 6.827l1.327.014zm1.68 5.285c-.53 0-.928.384-.928.923 0 .554.398.952.928.952.531 0 .93-.398.93-.952 0-.54-.399-.923-.93-.923z"/>
    </g>
</svg>
