<?xml version="1.0" encoding="UTF-8"?>
<svg width="12px" height="16px" viewBox="0 0 12 16" version="1.1" xmlns="http://www.w3.org/2000/svg" xmlns:xlink="http://www.w3.org/1999/xlink">
    <!-- Generator: sketchtool 47.1 (45422) - http://www.bohemiancoding.com/sketch -->
    <title>F7C2F0C6-5A77-4891-A09B-9BCB03A73503</title>
    <desc>Created with sketchtool.</desc>
    <defs></defs>
    <g id="Donate-&amp;-Profile" stroke="none" stroke-width="1" fill="none" fill-rule="evenodd" opacity="0.25">
        <g id="02-card" transform="translate(-550.000000, -641.000000)" fill-rule="nonzero" fill="#000000">
            <g id="Group-4" transform="translate(550.000000, 640.000000)">
                <g id="icon-lock" transform="translate(0.000000, 1.000000)">
                    <path d="M6,12.1904762 C6.82842712,12.1904762 7.5,11.5082434 7.5,10.6666667 C7.5,9.82095238 6.825,9.14285714 6,9.14285714 C5.17157288,9.14285714 4.5,9.82508991 4.5,10.6666667 C4.5,11.5082434 5.17157288,12.1904762 6,12.1904762 L6,12.1904762 Z M10.5,5.33333333 C11.3284271,5.33333333 12,6.0155661 12,6.85714286 L12,14.4761905 C12,15.3177672 11.3284271,16 10.5,16 L1.5,16 C0.671572875,16 0,15.3177672 0,14.4761905 L0,6.85714286 C0,6.01142857 0.675,5.33333333 1.5,5.33333333 L2.25,5.33333333 L2.25,3.80952381 C2.25,1.70558191 3.92893219,2.85485921e-16 6,-2.22044605e-16 C6.99456184,-1.37456184e-16 7.94838901,0.401359392 8.65165043,1.11578369 C9.35491185,1.83020799 9.75,2.79917528 9.75,3.80952381 L9.75,5.33333333 L10.5,5.33333333 L10.5,5.33333333 Z M6,1.52380952 C4.75735931,1.52380952 3.75,2.54715867 3.75,3.80952381 L3.75,5.33333333 L8.25,5.33333333 L8.25,3.80952381 C8.25,2.54715867 7.24264069,1.52380952 6,1.52380952 Z" id="Shape"></path>
                </g>
            </g>
        </g>
    </g>
</svg>