<?xml version="1.0" encoding="UTF-8"?>
<svg width="15px" height="15px" viewBox="0 0 15 15" version="1.1" xmlns="http://www.w3.org/2000/svg" xmlns:xlink="http://www.w3.org/1999/xlink">
    <!-- Generator: sketchtool 47.1 (45422) - http://www.bohemiancoding.com/sketch -->
    <title>22B91CC6-CFC1-4E07-8773-B044FEEBD87A</title>
    <desc>Created with sketchtool.</desc>
    <defs></defs>
    <g id="Symbols" stroke="none" stroke-width="1" fill="none" fill-rule="evenodd">
        <g id="Profile-menu" transform="translate(-25.000000, -667.000000)" fill="#B8B8B8">
            <g id="side-menu-item" transform="translate(0.000000, 650.000000)">
                <path d="M34.21875,27.5078125 L36.40625,25.3203125 L28.3203125,25.3203125 L28.3203125,23.6796875 L36.40625,23.6796875 L34.21875,21.4921875 L35.4296875,20.3203125 L39.5703125,24.5 L35.4296875,28.6796875 L34.21875,27.5078125 Z M38.3203125,17 C38.7890648,17 39.1861963,17.1627588 39.5117188,17.4882812 C39.8372412,17.8138037 40,18.2109352 40,18.6796875 L40,22.546875 L38.3203125,20.90625 L38.3203125,18.6796875 L26.6796875,18.6796875 L26.6796875,30.3203125 L38.3203125,30.3203125 L38.3203125,28.09375 L40,26.453125 L40,30.3203125 C40,30.7890648 39.8372412,31.1861963 39.5117188,31.5117188 C39.1861963,31.8372412 38.7890648,32 38.3203125,32 L26.6796875,32 C26.1848934,32 25.7812516,31.8372412 25.46875,31.5117188 C25.1562484,31.1861963 25,30.7890648 25,30.3203125 L25,18.6796875 C25,18.1848934 25.1562484,17.7812516 25.46875,17.46875 C25.7812516,17.1562484 26.1848934,17 26.6796875,17 L38.3203125,17 Z" id=""></path>
            </g>
        </g>
    </g>
</svg>