<svg xmlns="http://www.w3.org/2000/svg" xmlns:xlink="http://www.w3.org/1999/xlink" width="137" height="25" viewBox="0 0 137 25">
    <defs>
        <path id="a" d="M0 24.823V.177h38.076v24.646z"/>
    </defs>
    <g fill="none" fill-rule="evenodd">
        <path fill="#FFF" d="M58.466 1.227v14.198c-.796 0-8.735-12.144-10.929-14.63-.238-.27-.523-.425-1.01-.439l-.013-.001h-4.892V24.29h4.447c.482 0 .873-.39.873-.873V9.22c.787 0 8.572 11.895 10.921 14.55.292.33.554.516.988.52h4.934V.356H59.34a.872.872 0 0 0-.873.872M126.113.97a1.03 1.03 0 0 0-.943-.615h-3.975a1.03 1.03 0 0 0-.943.614l-10.279 23.322h5.257c.573 0 1.09-.348 1.304-.88l6.649-16.468 6.648 16.468c.215.532.73.88 1.304.88h5.257L126.113.969zM85.86 11.348v5.319c0 1.768-1.764 3.58-5.718 3.59-3.955-.01-5.718-1.822-5.718-3.59V8.333c0-1.768 1.763-3.58 5.718-3.59 3.954.01 5.718 1.822 5.718 3.59v3.015zM80.192 0L80.175 0h-.083c-5.72.03-10.987 3.04-10.987 8.422V16.578c0 5.382 5.267 8.392 10.987 8.421l.017.001h.083c5.72-.03 10.987-3.04 10.987-8.422V8.422C91.18 3.04 85.911.03 80.192 0zM113.254 4.202l.354-3.847H91.977l.354 3.847c0 .47.382.851.852.851h6.95v18.332c0 .5.405.906.906.906h3.507c.5 0 .906-.406.906-.906V5.053h6.95c.47 0 .852-.381.852-.851"/>
        <g>
            <mask id="b" fill="#fff">
                <use xlink:href="#a"/>
            </mask>
            <path fill="#FFF" d="M37.19 8.333c0-7.092-7.093-7.978-10.639-7.978h-9.589c-.555 0-1.005.45-1.005 1.005v.56c-.028.134-.002 13.683-.002 13.683-.06 3.412-1.83 4.698-5.317 4.698-3.546 0-5.319-1.33-5.319-4.875V1.536C5.32.983 4.87.533 4.314.533L0 .177V17.2c0 5.319 5.32 7.624 10.638 7.624 5.32 0 10.639-2.305 10.639-7.624V5.053h5.274c3.546 0 5.32.62 5.32 3.28 0 3.42-1.649 3.872-6.536 3.9a.56.56 0 0 0-.557.56v2.385c0 .391.125.773.355 1.089l5.568 7.635a.946.946 0 0 0 .764.389h6.611l-6.56-8.51c.266 0 5.674-1.242 5.674-7.448" mask="url(#b)"/>
        </g>
    </g>
</svg>
