<svg xmlns="http://www.w3.org/2000/svg" width="34" height="34" viewBox="0 0 34 34">
    <g fill="#FFA730" fill-rule="nonzero">
        <path d="M.567 17.486h5.666c.313 0 .567.257.567.575v.576h4.414c.561 0 1.105.167 1.571.484l4.387 2.97h4.515c.803 0 1.55.405 1.996 1.086.38.58.488 1.29.322 1.952l6.987-2.219c.47-.18.993-.19 1.5-.017A2.234 2.234 0 0 1 34 25.018c0 .902-.528 1.712-1.346 2.062l-12.358 5.312a7.784 7.784 0 0 1-3.09.637h-.144a7.814 7.814 0 0 1-2.52-.418L6.8 29.815v.91a.571.571 0 0 1-.567.577H.567A.571.571 0 0 1 0 30.726V18.06c0-.318.254-.575.567-.575zM6.8 28.593l8.111 2.93a6.695 6.695 0 0 0 2.15.354h.145c.914 0 1.806-.183 2.649-.545l12.358-5.312a1.096 1.096 0 0 0-.108-2.045 1.088 1.088 0 0 0-.745.023l-8.163 2.593c-.007.007-.017.013-.025.02-.213.204-.46.367-.73.478l-.034.013a2.367 2.367 0 0 1-.364.11l-.088.02c-.138.023-.277.04-.42.04h-8.503v-1.151h8.503c.106 0 .209-.019.308-.044.037-.01.072-.023.107-.035.062-.022.122-.05.179-.08.036-.02.073-.04.108-.063.064-.044.124-.096.18-.151.017-.018.037-.03.054-.05a1.29 1.29 0 0 0 .194-.287l.152-.31a1.304 1.304 0 0 0-.08-1.286 1.255 1.255 0 0 0-1.051-.573H17a.563.563 0 0 1-.314-.096l-4.53-3.068a1.67 1.67 0 0 0-.942-.29H6.8v8.805zM1.133 30.15h4.534V18.637H1.133V30.15zM20.886 18.457c5.088 0 9.228-4.14 9.228-9.228C30.114 4.14 25.974 0 20.886 0c-5.089 0-9.229 4.14-9.229 9.229 0 5.088 4.14 9.228 9.229 9.228zm0-17.303c4.452 0 8.075 3.622 8.075 8.075 0 4.452-3.622 8.075-8.075 8.075-4.453 0-8.075-3.623-8.075-8.075 0-4.453 3.622-8.075 8.075-8.075z"/>
        <path d="M20.886 11.96c-.67 0-1.215-.49-1.215-1.092 0-.302-.271-.547-.607-.547-.335 0-.607.245-.607.547 0 1.015.777 1.864 1.822 2.108v.078c0 .301.271.546.607.546.335 0 .607-.245.607-.546v-.078c1.045-.244 1.821-1.093 1.821-2.108 0-1.206-1.089-2.186-2.428-2.186-.67 0-1.215-.49-1.215-1.093 0-.602.545-1.093 1.215-1.093s1.214.49 1.214 1.093c0 .302.271.547.607.547.336 0 .607-.245.607-.547 0-1.015-.776-1.864-1.821-2.108v-.077c0-.302-.272-.547-.607-.547-.336 0-.607.245-.607.547v.077c-1.045.244-1.822 1.093-1.822 2.108 0 1.206 1.09 2.186 2.429 2.186.67 0 1.214.49 1.214 1.093s-.545 1.093-1.214 1.093z"/>
    </g>
</svg>
