<?xml version="1.0" encoding="UTF-8"?>
<svg width="40px" height="26px" viewBox="0 0 40 26" version="1.1" xmlns="http://www.w3.org/2000/svg" xmlns:xlink="http://www.w3.org/1999/xlink">
    <!-- Generator: sketchtool 47.1 (45422) - http://www.bohemiancoding.com/sketch -->
    <title>31534220-8391-474F-8F60-D074843A72DE</title>
    <desc>Created with sketchtool.</desc>
    <defs></defs>
    <g id="Styleguide" stroke="none" stroke-width="1" fill="none" fill-rule="evenodd">
        <g transform="translate(-224.000000, -1733.000000)" id="Paypal">
            <g transform="translate(224.000000, 1733.000000)">
                <rect id="Rectangle-2" fill="#F7F7F7" x="0" y="0" width="40" height="26" rx="3"></rect>
                <g id="004-paypal" transform="translate(12.000000, 3.000000)" fill-rule="nonzero">
                    <path d="M15.3665701,5.1671875 C15.401007,4.89199219 15.419,4.61179687 15.419,4.32746094 C15.419,1.9375 13.4489463,0 11.0187407,0 L3.66496963,0 C3.20239486,0 2.80746262,0.328515625 2.7307243,0.777109375 L0.0210514019,16.6159766 C-0.076182243,17.1843359 0.369313084,17.7022656 0.955296729,17.7022656 L3.64475234,17.7022656 C4.1073271,17.7022656 4.50968692,17.3739844 4.58638551,16.9253516 C4.58638551,16.9253516 4.59087383,16.8990625 4.59897664,16.8517188 L4.22422196,19.0425781 C4.13858645,19.5434766 4.53121495,20 5.04768925,20 L7.40056075,20 C7.80828271,20 8.15638551,19.7104297 8.22398832,19.3150391 L8.89242991,15.4080078 C9.00765654,14.7344922 9.6005514,14.2413281 10.2949696,14.2413281 L10.9130864,14.2413281 C14.2705864,14.2413281 16.9923341,11.5645703 16.9923341,8.26265625 C16.9923341,6.98496094 16.3501472,5.85554687 15.3665701,5.1671875 Z" id="Shape" fill="#002987"></path>
                    <path d="M15.3665701,5.1671875 C14.9457804,8.53355469 12.0283738,11.1402344 8.49165888,11.1402344 L6.43954439,11.1402344 C5.97637383,11.1402344 5.57635748,11.4436328 5.45088318,11.8726172 L4.22426168,19.0425 C4.13858645,19.5434375 4.53121495,20 5.04768925,20 L7.40056075,20 C7.80828271,20 8.15638551,19.7104297 8.22398832,19.3150391 L8.89242991,15.4080078 C9.00765654,14.7344922 9.6005514,14.2413281 10.2949696,14.2413281 L10.9130864,14.2413281 C14.2705864,14.2413281 16.9923341,11.5645703 16.9923341,8.26265625 L16.9923341,8.26265625 C16.9923341,6.98496094 16.3501472,5.85554687 15.3665701,5.1671875 Z" id="Shape" fill="#0085CC"></path>
                    <path d="M6.43954439,11.1402344 L8.49165888,11.1402344 C12.0284136,11.1402344 14.9458201,8.53355469 15.3665701,5.16722656 C14.7355047,4.72558594 13.9643084,4.46496094 13.1307523,4.46496094 L7.77456075,4.46496094 C7.16474533,4.46496094 6.64406075,4.89804688 6.54285514,5.48945313 L5.45084346,11.8725781 C5.57631776,11.4435938 5.97637383,11.1402344 6.43954439,11.1402344 Z" id="Shape" fill="#00186A"></path>
                </g>
            </g>
        </g>
    </g>
</svg>