<?xml version="1.0" encoding="UTF-8"?>
<svg width="50px" height="60px" viewBox="0 0 50 60" version="1.1" xmlns="http://www.w3.org/2000/svg" xmlns:xlink="http://www.w3.org/1999/xlink">
    <!-- Generator: sketchtool 47.1 (45422) - http://www.bohemiancoding.com/sketch -->
    <title>74CEA07A-6B48-4107-AFB1-30E1A5519164</title>
    <desc>Created with sketchtool.</desc>
    <defs></defs>
    <g id="Donate-&amp;-Profile" stroke="none" stroke-width="1" fill="none" fill-rule="evenodd">
        <g id="05-card-new-already-registered-paypal" transform="translate(-695.000000, -556.000000)" fill-rule="nonzero">
            <g id="004-paypal" transform="translate(695.000000, 556.000000)">
                <path d="M45.2140203,15.3400879 C45.3153969,14.5231018 45.3683653,13.691272 45.3683653,12.8471497 C45.3683653,5.75195313 39.5688537,0 32.4147314,0 L10.766449,0 C9.40470555,0 8.24209052,0.975280762 8.01618564,2.30704346 L0.0393579599,49.3286804 C-0.246881767,51.0159973 1.0645826,52.5536011 2.78962128,52.5536011 L10.7069326,52.5536011 C12.068676,52.5536011 13.2531566,51.5790161 13.4789445,50.2471375 C13.4789445,50.2471375 13.4921574,50.1690918 13.5160107,50.02854 L12.4127951,56.5326538 C12.1606983,58.019696 13.3165316,59.375 14.8369463,59.375 L21.7634098,59.375 C22.9636756,59.375 23.9884325,58.5153381 24.187444,57.3415222 L26.1552252,45.7425232 C26.4944333,43.7430237 28.2398174,42.2789429 30.2840695,42.2789429 L32.103703,42.2789429 C41.9876262,42.2789429 50,34.3323181 50,24.5297607 C50,20.7366028 48.1095082,17.3836548 45.2140203,15.3400879 Z" id="Shape" fill="#DEDEDE"></path>
                <path d="M45.1500017,15 C43.8946969,25.2129332 35.1914554,33.1211156 24.6406858,33.1211156 L18.5187938,33.1211156 C17.1370579,33.1211156 15.9437244,34.0415701 15.569408,35.3430291 L11.9101364,57.0951227 C11.654549,58.6148741 12.825843,60 14.3665952,60 L21.3857091,60 C22.60203,60 23.6404944,59.1214974 23.8421679,57.9219557 L25.8362707,46.068748 C26.1800161,44.0254266 27.948747,42.5292584 30.0203436,42.5292584 L31.864317,42.5292584 C41.8804504,42.5292584 50,34.408472 50,24.3910776 L50,24.3910776 C50,20.5147872 48.0842205,17.0883546 45.1500017,15 Z" id="Shape" fill="#E6E6E6"></path>
            </g>
        </g>
    </g>
</svg>