<svg xmlns="http://www.w3.org/2000/svg" width="36" height="30" viewBox="0 0 36 30">
    <g fill="#DBDBDB" fill-rule="nonzero">
        <path d="M33 15c0 8.27-6.73 15-15 15-7.244 0-13.305-5.162-14.699-12 .028-.24.276-.36.742-.358.466.003.73.122.793.358C6.204 24.005 11.586 28.5 18 28.5c7.444 0 13.5-6.056 13.5-13.5 0-.336-.012-.67-.037-1h1.504c.022.33.033.664.033 1zm-1.836-3C29.796 5.995 24.414 1.5 18 1.5 10.556 1.5 4.5 7.556 4.5 15c0 .336.012.67.037 1H3.033A15.15 15.15 0 0 1 3 15C3 6.73 9.73 0 18 0c7.244 0 13.305 5.162 14.699 12-.144.187-.397.278-.76.274-.362-.004-.62-.096-.775-.274z"/>
        <path d="M4.66 14.58l2.214-2.372a.626.626 0 0 1 .932 0A.73.73 0 0 1 8 12.71a.73.73 0 0 1-.194.502l-3.34 3.58a.626.626 0 0 1-.932 0l-3.34-3.58a.74.74 0 0 1 0-.998.626.626 0 0 1 .932 0l2.214 2.373 1.32-.006zM31.34 15.42l-2.214 2.372a.626.626 0 0 1-.932 0A.73.73 0 0 1 28 17.29a.73.73 0 0 1 .194-.502l3.34-3.58a.626.626 0 0 1 .932 0l3.34 3.58a.74.74 0 0 1 0 .998.626.626 0 0 1-.932 0l-2.214-2.373-1.32.006zM18 19.375c-1.103 0-2-.785-2-1.75 0-.483-.447-.875-1-.875-.553 0-1 .392-1 .875 0 1.626 1.279 2.985 3 3.376v.124c0 .483.447.875 1 .875.553 0 1-.392 1-.875v-.124c1.721-.391 3-1.75 3-3.376 0-1.93-1.794-3.5-4-3.5-1.103 0-2-.785-2-1.75s.897-1.75 2-1.75 2 .785 2 1.75c0 .483.447.875 1 .875.553 0 1-.392 1-.875 0-1.626-1.279-2.985-3-3.376v-.124C19 8.392 18.553 8 18 8c-.553 0-1 .392-1 .875v.124c-1.721.391-3 1.75-3 3.376 0 1.93 1.794 3.5 4 3.5 1.103 0 2 .785 2 1.75s-.897 1.75-2 1.75z"/>
    </g>
</svg>
