<?xml version="1.0" encoding="UTF-8"?>
<svg width="25px" height="25px" viewBox="0 0 25 25" version="1.1" xmlns="http://www.w3.org/2000/svg" xmlns:xlink="http://www.w3.org/1999/xlink">
    <!-- Generator: sketchtool 47.1 (45422) - http://www.bohemiancoding.com/sketch -->
    <title>5729254A-5DD5-4456-9ED3-C5DD9C69C2A6</title>
    <desc>Created with sketchtool.</desc>
    <defs></defs>
    <g id="My-Profile" stroke="none" stroke-width="1" fill="none" fill-rule="evenodd">
        <g id="Profile-Payments-Subscription-Settings" transform="translate(-272.000000, -1366.000000)">
            <g id="Group-9" transform="translate(272.000000, 1366.000000)">
                <g id="Group-6">
                    <path d="M12.5,0 L12.5,0 L12.5,0 C19.4035594,-1.26816328e-15 25,5.59644063 25,12.5 L25,12.5 L25,12.5 C25,19.4035594 19.4035594,25 12.5,25 L12.5,25 L12.5,25 C5.59644063,25 2.62179903e-15,19.4035594 1.77635684e-15,12.5 L0,12.5 L0,12.5 C-8.45442189e-16,5.59644063 5.59644063,3.04452012e-15 12.5,1.77635684e-15 Z" id="Rectangle-2-Copy" fill="#CCCCCC"></path>
                    <path d="M11.5,12.5 L7,17 L8,18 L12.5,13.5 L17,18 L18,17 L13.5,12.5 L18,8 L17,7 L12.5,11.5 L8,7 L7,8 L11.5,12.5 Z" id="Combined-Shape" fill="#FFFFFF" fill-rule="nonzero"></path>
                </g>
            </g>
        </g>
    </g>
</svg>