<?xml version="1.0" encoding="UTF-8"?>
<svg width="16px" height="14px" viewBox="0 0 16 14" version="1.1" xmlns="http://www.w3.org/2000/svg" xmlns:xlink="http://www.w3.org/1999/xlink">
    <!-- Generator: sketchtool 47.1 (45422) - http://www.bohemiancoding.com/sketch -->
    <title>09247632-2BFE-4E93-ABE6-9FC65D81F640</title>
    <desc>Created with sketchtool.</desc>
    <defs></defs>
    <g id="Styleguide" stroke="none" stroke-width="1" fill="none" fill-rule="evenodd">
        <g id="Icons" transform="translate(-128.000000, -92.000000)" fill="#B8B8B8">
            <path d="M134.038047,105.151116 L134.287789,101.244844 L141.072462,94.821197 C141.211208,94.6765195 141.225083,94.5824806 141.114086,94.5390773 C141.003088,94.4956741 140.836595,94.5318429 140.6146,94.6475849 L132.206601,100.203172 L128.585334,98.9878869 C128.169094,98.872145 127.974852,98.6985346 128.002602,98.4670507 C128.030351,98.2355668 128.280091,98.0040863 128.751829,97.7726024 L142.945531,92.0868067 C143.278523,91.9421292 143.556012,91.978298 143.778006,92.1953142 C144.000001,92.4123304 144.055498,92.7812524 143.944501,93.3020912 L141.530323,105.151116 C141.336078,105.990245 140.892096,106.207258 140.198363,105.802161 L136.535472,102.980965 L134.74565,104.760489 C134.662403,104.876231 134.565281,104.97027 134.454284,105.042608 C134.343287,105.114947 134.204542,105.151116 134.038047,105.151116 Z" id="ï”"></path>
        </g>
    </g>
</svg>