<?xml version="1.0" encoding="UTF-8"?>
<svg width="16px" height="14px" viewBox="0 0 16 14" version="1.1" xmlns="http://www.w3.org/2000/svg" xmlns:xlink="http://www.w3.org/1999/xlink">
    <!-- Generator: sketchtool 47.1 (45422) - http://www.bohemiancoding.com/sketch -->
    <title>7F2D57EA-8B68-4A56-B897-C16E3038728D</title>
    <desc>Created with sketchtool.</desc>
    <defs></defs>
    <g id="Styleguide" stroke="none" stroke-width="1" fill="none" fill-rule="evenodd">
        <g id="Icons" transform="translate(-128.000000, -132.000000)" fill="#4F4F4F">
            <path d="M134.038047,145.151116 L134.287789,141.244844 L141.072462,134.821197 C141.211208,134.67652 141.225083,134.582481 141.114086,134.539077 C141.003088,134.495674 140.836595,134.531843 140.6146,134.647585 L132.206601,140.203172 L128.585334,138.987887 C128.169094,138.872145 127.974852,138.698535 128.002602,138.467051 C128.030351,138.235567 128.280091,138.004086 128.751829,137.772602 L142.945531,132.086807 C143.278523,131.942129 143.556012,131.978298 143.778006,132.195314 C144.000001,132.41233 144.055498,132.781252 143.944501,133.302091 L141.530323,145.151116 C141.336078,145.990245 140.892096,146.207258 140.198363,145.802161 L136.535472,142.980965 L134.74565,144.760489 C134.662403,144.876231 134.565281,144.97027 134.454284,145.042608 C134.343287,145.114947 134.204542,145.151116 134.038047,145.151116 Z" id="ï”-copy-2"></path>
        </g>
    </g>
</svg>