<?xml version="1.0" encoding="UTF-8"?>
<svg width="16px" height="16px" viewBox="0 0 16 16" version="1.1" xmlns="http://www.w3.org/2000/svg" xmlns:xlink="http://www.w3.org/1999/xlink">
    <!-- Generator: sketchtool 47.1 (45422) - http://www.bohemiancoding.com/sketch -->
    <title>850FD600-E3D5-4419-838A-EDD91D06EC63</title>
    <desc>Created with sketchtool.</desc>
    <defs></defs>
    <g id="Donate-&amp;-Profile" stroke="none" stroke-width="1" fill="none" fill-rule="evenodd">
        <g id="01-2-funds" transform="translate(-904.000000, -851.000000)" fill="#66C05F">
            <g id="Group-6" transform="translate(220.000000, 170.000000)">
                <g id="Table" transform="translate(100.000000, 464.000000)">
                    <g id="line" transform="translate(0.000000, 200.000000)">
                        <path d="M590.384977,29.0187793 L597.596244,21.8075117 L596.469484,20.6431925 L590.384977,26.7276995 L587.530516,23.8732394 L586.403756,25 L590.384977,29.0187793 Z M592,17 C594.278572,17.0500785 596.169007,17.8262836 597.671362,19.3286385 C599.173716,20.8309934 599.949922,22.7214284 600,25 C599.949922,27.2785716 599.173716,29.1690066 597.671362,30.6713615 C596.169007,32.1737164 594.278572,32.9499215 592,33 C589.721428,32.9499215 587.830993,32.1737164 586.328638,30.6713615 C584.826284,29.1690066 584.050078,27.2785716 584,25 C584.050078,22.7214284 584.826284,20.8309934 586.328638,19.3286385 C587.830993,17.8262836 589.721428,17.0500785 592,17 Z" id=""></path>
                    </g>
                </g>
            </g>
        </g>
    </g>
</svg>