<svg xmlns="http://www.w3.org/2000/svg" xmlns:xlink="http://www.w3.org/1999/xlink" width="328" height="60"><defs><path id="a" d="M.437.351h63.501v57.447H.437z"/><path id="c" d="M.351 0h53.06v60H.351z"/><path id="e" d="M0 .425h91.522v59.15H0z"/></defs><g fill="none" fill-rule="evenodd"><path fill="#FFF" d="M140.533 2.945v34.077c-1.913 0-20.996-29.146-26.27-35.112-.572-.648-1.258-1.021-2.427-1.055-.011-.001-.022-.004-.033-.004h-11.757v57.447h10.688a2.096 2.096 0 0 0 2.098-2.094V22.128c1.893 0 20.605 28.549 26.252 34.92.7.791 1.33 1.238 2.375 1.248l.018.002h11.842V.851H142.63a2.096 2.096 0 0 0-2.098 2.094"/><g transform="translate(263.902 .5)"><mask id="b" fill="#fff"><use xlink:href="#a"/></mask><path fill="#FFF" d="M39.232 1.827A2.477 2.477 0 0 0 36.965.35H27.41c-.982 0-1.87.58-2.267 1.476L.437 57.797h12.635a3.38 3.38 0 0 0 3.135-2.111l15.98-39.524 15.98 39.524a3.38 3.38 0 0 0 3.136 2.112h12.635L39.232 1.827z" mask="url(#b)"/></g><g transform="translate(165.753)"><mask id="d" fill="#fff"><use xlink:href="#c"/></mask><path fill="#FFF" d="M40.626 27.234V40c0 4.243-4.24 8.591-13.744 8.616-9.506-.025-13.745-4.373-13.745-8.616V20c0-4.243 4.239-8.591 13.745-8.616 9.505.025 13.744 4.373 13.744 8.616v7.234zM27.002.002L26.962 0h-.16l-.041.002C13.014.072.35 7.297.35 20.212v19.575C.351 52.703 13.014 59.93 26.761 60l.041.001h.16l.04-.001c13.747-.07 26.41-7.296 26.41-20.212V20.213C53.411 7.297 40.748.07 27.001.002z" mask="url(#d)"/></g><path fill="#FFF" d="M272.223 10.084l.853-9.233h-51.994l.852 9.233c0 1.128.917 2.044 2.047 2.044h16.705v43.997c0 1.2.975 2.173 2.177 2.173h8.431a2.175 2.175 0 0 0 2.178-2.173V12.128h16.704a2.046 2.046 0 0 0 2.047-2.044"/><mask id="f" fill="#fff"><use xlink:href="#e"/></mask><path fill="#FFF" d="M89.392 20C89.392 2.979 72.344.851 63.82.851H40.772a2.414 2.414 0 0 0-2.416 2.412v1.344c-.069.323-.007 32.84-.007 32.84-.142 8.188-4.4 11.276-12.778 11.276-8.524 0-12.786-3.191-12.786-11.701V3.688a2.414 2.414 0 0 0-2.415-2.412L0 .426v40.85c0 12.766 12.785 18.298 25.57 18.298 12.786 0 25.572-5.532 25.572-18.297v-29.15H63.82c8.523 0 12.785 1.49 12.785 7.873 0 8.206-3.963 9.291-15.71 9.358a1.346 1.346 0 0 0-1.337 1.345v5.724c0 .939.299 1.855.853 2.614l13.382 18.324a2.276 2.276 0 0 0 1.838.933h15.89L75.754 37.873c.639 0 13.638-2.98 13.638-17.873" mask="url(#f)"/></g></svg>