<svg xmlns="http://www.w3.org/2000/svg" width="110" height="20" viewBox="0 0 110 20">
    <path fill="#58B950" fill-rule="evenodd" d="M46.773.982c0-.386.313-.698.698-.698h3.557v19.149h-3.94l-.007-.001c-.348-.003-.557-.152-.79-.416-1.88-2.124-8.108-11.64-8.738-11.64v11.359a.698.698 0 0 1-.698.698h-3.557V.283h3.913l.01.002c.39.011.618.136.809.352 1.755 1.988 8.106 11.703 8.743 11.703V.982zm54.118-.206l8.222 18.657h-4.205c-.459 0-.872-.279-1.043-.704L98.546 5.554l-5.318 13.175a1.126 1.126 0 0 1-1.044.704h-4.205L96.202.776a.824.824 0 0 1 .754-.492h3.18c.327 0 .623.193.755.492zM68.688 9.078v4.255c0 1.415-1.41 2.864-4.574 2.872-3.164-.008-4.575-1.457-4.575-2.872V6.667c0-1.415 1.411-2.864 4.575-2.872 3.163.008 4.574 1.457 4.574 2.872v2.411zM64.154.001c4.575.023 8.79 2.431 8.79 6.736v6.525c0 4.306-4.215 6.714-8.79 6.737L64.14 20h-.067c-4.575-.024-8.79-2.432-8.79-6.738V6.738c0-4.306 4.215-6.714 8.79-6.737L64.087 0h.067zm26.449 3.36a.681.681 0 0 1-.681.682h-5.56v14.665c0 .4-.325.725-.725.725h-2.806a.724.724 0 0 1-.725-.725V4.043h-5.56a.681.681 0 0 1-.68-.682L73.581.284h17.305l-.284 3.077zM29.752 6.667c0 4.964-4.326 5.957-4.54 5.957l5.249 6.809h-5.289a.757.757 0 0 1-.612-.312l-4.453-6.108a1.479 1.479 0 0 1-.284-.87v-1.909c0-.246.199-.447.445-.448 3.91-.022 5.229-.384 5.229-3.12 0-2.127-1.419-2.624-4.256-2.624h-4.22v9.717c0 4.255-4.255 6.1-8.51 6.1-4.256 0-8.511-1.845-8.511-6.1V.142l3.451.283c.445 0 .804.36.804.804V12.34c0 2.837 1.419 3.901 4.256 3.901 2.788 0 4.205-1.03 4.253-3.759 0 0-.021-10.839.002-10.946v-.448c0-.444.36-.804.804-.804H21.241c2.837 0 8.51.709 8.51 6.383z"/>
</svg>
