<svg xmlns="http://www.w3.org/2000/svg" width="35" height="35" viewBox="0 0 35 35">
    <g fill="none" fill-rule="nonzero">
        <path fill="#ADDCAD" d="M12.292 27.44L7.07 30.288a4.692 4.692 0 0 0-.838.597A17.419 17.419 0 0 0 17.5 35a17.43 17.43 0 0 0 11.203-4.057 4.632 4.632 0 0 0-.92-.617L22.19 27.53a2.132 2.132 0 0 1-1.18-1.907V23.43c.158-.18.338-.41.53-.68a12.866 12.866 0 0 0 1.738-3.503 1.756 1.756 0 0 0 1.245-1.671v-2.342c0-.515-.229-.975-.585-1.297v-3.385s.696-5.268-6.438-5.268c-7.134 0-6.439 5.268-6.439 5.268v3.385a1.746 1.746 0 0 0-.585 1.297v2.342c0 .617.324 1.16.81 1.473.585 2.547 2.117 4.38 2.117 4.38v2.14c-.001.78-.428 1.497-1.112 1.871z"/>
        <path fill="#DFF2DF" d="M17.8.003C8.135-.162.167 7.538.002 17.2-.091 22.68 2.35 27.604 6.239 30.879a4.65 4.65 0 0 1 .83-.59l5.222-2.848a2.133 2.133 0 0 0 1.111-1.873v-2.14s-1.532-1.832-2.117-4.38a1.756 1.756 0 0 1-.81-1.473v-2.341c0-.516.23-.976.586-1.298V10.55s-.696-5.268 6.438-5.268c7.134 0 6.439 5.268 6.439 5.268v3.385c.357.322.585.782.585 1.298v2.341c0 .787-.528 1.45-1.245 1.671a12.866 12.866 0 0 1-1.738 3.503 8.445 8.445 0 0 1-.53.68v2.194c0 .807.457 1.546 1.18 1.907l5.59 2.795c.336.168.64.38.919.616 3.77-3.145 6.207-7.847 6.297-13.142C35.162 8.136 27.463.168 17.799.003z"/>
    </g>
</svg>
