<?xml version="1.0" encoding="UTF-8"?>
<svg width="40px" height="26px" viewBox="0 0 40 26" version="1.1" xmlns="http://www.w3.org/2000/svg" xmlns:xlink="http://www.w3.org/1999/xlink">
    <!-- Generator: sketchtool 47.1 (45422) - http://www.bohemiancoding.com/sketch -->
    <title>E708388A-82BF-4186-9FC1-8DF94BA267CA</title>
    <desc>Created with sketchtool.</desc>
    <defs></defs>
    <g id="Styleguide" stroke="none" stroke-width="1" fill="none" fill-rule="evenodd">
        <g transform="translate(-169.000000, -1733.000000)" id="Visa">
            <g transform="translate(169.000000, 1733.000000)">
                <rect id="Rectangle-2" fill="#F7F7F7" x="0" y="0" width="40" height="26" rx="3"></rect>
                <path d="M16.7150574,7 L14.9082957,18.9759487 L17.7961777,18.9759487 L19.6018289,7 C19.6018289,7 16.7150574,7 16.7150574,7 Z M25.4259607,11.8783309 C24.4167752,11.3474947 23.7981108,10.9892229 23.7981108,10.4462954 C23.8104495,9.9526532 24.3212734,9.44691966 25.4619898,9.44691966 C26.4002276,9.42181699 27.0898397,9.65667817 27.6130023,9.8903565 L27.8750771,10.0149499 L28.2676958,7.50928208 C27.6972759,7.2744209 26.7928463,7.01563989 25.6756968,7.01563989 C22.8238439,7.01563989 20.8157141,8.59500575 20.8032519,10.8538525 C20.779685,12.5207491 22.2409619,13.4457368 23.3345444,14.0006243 C24.4516938,14.5698374 24.8319738,14.9388862 24.8319738,15.4446197 C24.819635,16.2210941 23.9286547,16.5793659 23.0972704,16.5793659 C21.9453257,16.5793659 21.3265379,16.3948415 20.3871896,15.9621817 L20.0069097,15.7776573 L19.6030627,18.381633 C20.2814466,18.7028421 21.5290166,18.985543 22.8239673,19 C25.8547319,19 27.8268326,17.444554 27.8516335,15.037194 C27.8615045,13.7166092 27.0909502,12.7051421 25.4259607,11.8783309 Z M35.6713097,7.03706259 L33.4370107,7.03706259 C32.7485091,7.03706259 32.2253465,7.24800394 31.9272426,8.00055857 L27.6375564,18.9759487 L30.668321,18.9759487 L31.5030367,16.5997371 L34.8938457,16.5997371 L35.3269355,18.985543 L38,18.985543 L35.6713097,7.03706259 Z M32.3435516,14.2017086 C32.4020373,14.2077542 33.506848,10.3227534 33.506848,10.3227534 L34.3866001,14.2017086 C34.3866001,14.2017086 32.9139716,14.2017086 32.3435516,14.2017086 Z M5.39522528,8.79417964 L7.9546757,18.9639888 L11.0102412,18.9639888 L15.5507739,7.00131428 L12.4952085,7.00131428 L12.4952085,7 L9.66581209,15.1365533 L9.36814848,13.5869187 C9.37252507,13.5989162 9.37686141,13.6109104 9.38115737,13.6229013 L8.40578001,8.54453754 C8.18528674,7.63137835 7.48210197,7.01550846 6.52708353,7.0023657 L2.04614689,7.0023657 L2,7.22395269 C3.22033488,7.54440831 4.37222636,8.09723836 5.39522528,8.79417964 Z" id="Combined-Shape" fill="#1443AE" fill-rule="nonzero"></path>
            </g>
        </g>
    </g>
</svg>