<?xml version="1.0" standalone="no"?>
<!DOCTYPE svg PUBLIC "-//W3C//DTD SVG 20010904//EN"
 "http://www.w3.org/TR/2001/REC-SVG-20010904/DTD/svg10.dtd">
<svg version="1.0" xmlns="http://www.w3.org/2000/svg"
 width="256.000000pt" height="256.000000pt" viewBox="0 0 256.000000 256.000000"
 preserveAspectRatio="xMidYMid meet">
<metadata>
Created by potrace 1.11, written by Peter Selinger 2001-2013
</metadata>
<g transform="translate(0.000000,256.000000) scale(0.100000,-0.100000)"
fill="#000000" stroke="none">
<path d="M0 1280 l0 -1280 1280 0 1280 0 0 1280 0 1280 -1280 0 -1280 0 0
-1280z m631 633 c0 -5 2 -195 3 -423 2 -445 4 -469 54 -518 39 -38 91 -54 178
-55 128 -2 199 30 233 103 13 30 16 94 16 457 1 233 4 425 7 429 8 7 633 6
684 -1 144 -21 250 -71 324 -152 59 -65 89 -139 94 -235 8 -171 -64 -311 -198
-383 -31 -16 -56 -33 -56 -37 0 -4 77 -108 170 -232 94 -124 170 -226 170
-228 0 -2 -95 -3 -211 -2 -194 0 -213 2 -225 19 -50 68 -269 456 -274 485 -8
52 4 148 20 164 10 9 49 16 112 19 109 6 147 20 166 60 19 39 17 139 -3 177
-28 54 -67 64 -277 68 l-187 4 -3 -344 -3 -343 -30 -58 c-52 -104 -161 -182
-310 -223 -92 -25 -300 -26 -399 -3 -162 39 -281 123 -334 236 l-27 58 -3 483
-3 482 155 0 c86 0 156 -3 157 -7z"/>
</g>
</svg>
