<svg xmlns="http://www.w3.org/2000/svg" width="20" height="20" viewBox="0 0 20 20">
    <g fill="none" fill-rule="evenodd">
        <path d="M0 0h20v20H0z"/>
        <path fill="#4F4F4F" fill-rule="nonzero" d="M10.745 9.49H9.26a1.12 1.12 0 0 1-1.12-1.12c0-.617.503-1.119 1.12-1.119h2.62c.282 0 .511-.23.511-.51 0-.281-.23-.511-.51-.511h-1.366V5.187c0-.28-.23-.51-.51-.51-.282 0-.511.23-.511.51V6.23H9.26c-1.18 0-2.14.961-2.14 2.14 0 1.179.96 2.14 2.14 2.14h1.485a1.12 1.12 0 0 1 0 2.238H8.077a.512.512 0 0 0 0 1.021l1.412.001v1.064c0 .28.23.51.511.51.28 0 .51-.23.51-.51V13.77h.26a2.144 2.144 0 0 0 2.11-2.14c0-1.183-.957-2.14-2.135-2.14z"/>
        <path fill="#4F4F4F" fill-rule="nonzero" d="M17.072 2.928A9.933 9.933 0 0 0 10 0a9.933 9.933 0 0 0-7.072 2.928A9.933 9.933 0 0 0 0 10a9.933 9.933 0 0 0 2.928 7.072A9.933 9.933 0 0 0 10 20a9.933 9.933 0 0 0 7.072-2.928A9.933 9.933 0 0 0 20 10a9.933 9.933 0 0 0-2.928-7.072zM10 18.978c-4.949 0-8.979-4.03-8.979-8.978 0-4.949 4.03-8.979 8.979-8.979 4.949 0 8.979 4.03 8.979 8.979 0 4.949-4.03 8.979-8.979 8.979z"/>
    </g>
</svg>
