<svg xmlns="http://www.w3.org/2000/svg" width="20" height="19" viewBox="0 0 20 19">
    <g fill="none" fill-rule="evenodd">
        <path d="M0 0h20v20H0z"/>
        <path fill="#4F4F4F" fill-rule="nonzero" d="M16.84 1.298h-2.495V.674c0-.374-.25-.624-.624-.624s-.623.25-.623.624v.624H6.86V.674C6.86.3 6.61.05 6.237.05s-.624.25-.624.624v.624H3.118A3.088 3.088 0 0 0 0 4.416v11.227a3.088 3.088 0 0 0 3.118 3.118H16.84a3.088 3.088 0 0 0 3.118-3.118V4.416a3.088 3.088 0 0 0-3.118-3.118zM1.247 4.416c0-.998.874-1.871 1.871-1.871h2.495v.624c0 .374.25.623.624.623s.624-.249.624-.623v-.624h6.237v.624c0 .374.25.623.623.623.375 0 .624-.249.624-.623v-.624h2.495c.998 0 1.871.873 1.871 1.871v1.871H1.247v-1.87zm17.464 11.227c0 .998-.873 1.87-1.871 1.87H3.118c-.997 0-1.87-.872-1.87-1.87V7.535H18.71v8.108z"/>
        <path fill="#4F4F4F" fill-rule="nonzero" d="M4.366 15.643c-.374 0-.624-.125-.873-.374a1.348 1.348 0 0 1-.375-.874c0-.374.125-.623.375-.873a1.206 1.206 0 0 1 1.746 0c.25.25.374.624.374.873 0 .25-.124.624-.374.874-.25.249-.499.374-.873.374zm0-3.742c-.374 0-.624-.125-.873-.375-.25-.25-.375-.499-.375-.873s.125-.624.375-.873a1.206 1.206 0 0 1 1.746 0c.25.25.374.624.374.873 0 .25-.124.624-.374.873-.25.25-.499.375-.873.375zm3.742 3.742c-.374 0-.624-.125-.873-.374a1.348 1.348 0 0 1-.374-.874c0-.25.124-.623.374-.873a1.206 1.206 0 0 1 1.746 0c.25.25.374.624.374.873 0 .25-.124.624-.374.874-.25.249-.499.374-.873.374zm0-3.742c-.374 0-.624-.125-.873-.375a1.348 1.348 0 0 1-.374-.873c0-.25.124-.624.374-.873a1.206 1.206 0 0 1 1.746 0c.25.25.374.624.374.873 0 .25-.124.624-.374.873-.25.25-.499.375-.873.375zm3.742 3.742c-.374 0-.623-.125-.873-.374a1.348 1.348 0 0 1-.374-.874c0-.25.125-.623.374-.873a1.206 1.206 0 0 1 1.746 0c.25.25.375.5.375.873 0 .375-.125.624-.375.874-.249.249-.499.374-.873.374zm0-3.742c-.374 0-.623-.125-.873-.375a1.348 1.348 0 0 1-.374-.873c0-.25.125-.624.374-.873a1.206 1.206 0 0 1 1.746 0c.25.25.375.624.375.873 0 .374-.125.624-.375.873-.249.25-.499.375-.873.375zm3.742 3.742c-.374 0-.623-.125-.873-.374a1.348 1.348 0 0 1-.374-.874c0-.374.125-.623.374-.873a1.206 1.206 0 0 1 1.747 0c.25.25.374.624.374.873 0 .25-.125.624-.374.874-.25.249-.5.374-.874.374zm0-3.742c-.374 0-.623-.125-.873-.375a1.348 1.348 0 0 1-.374-.873c0-.25.125-.624.374-.873a1.206 1.206 0 0 1 1.747 0c.25.25.374.624.374.873 0 .374-.125.624-.374.873-.25.25-.5.375-.874.375z"/>
    </g>
</svg>
