<svg xmlns="http://www.w3.org/2000/svg" width="20" height="20" viewBox="0 0 20 20">
    <g fill="none" fill-rule="evenodd">
        <path d="M0 0h20v20H0z"/>
        <path fill="#4F4F4F" fill-rule="nonzero" d="M10 0C4.486 0 0 4.486 0 10s4.486 10 10 10 10-4.486 10-10S15.514 0 10 0zm0 18.77c-4.835 0-8.77-3.935-8.77-8.77 0-4.835 3.935-8.77 8.77-8.77 4.835 0 8.77 3.935 8.77 8.77 0 4.835-3.935 8.77-8.77 8.77z"/>
        <circle cx="10" cy="6" r="1" fill="#4F4F4F" fill-rule="nonzero"/>
        <path fill="#4F4F4F" fill-rule="nonzero" d="M10 9c-.552 0-1 .276-1 .615v5.231c0 .34.448.616 1 .616s1-.276 1-.616v-5.23c0-.34-.448-.616-1-.616z"/>
    </g>
</svg>
