<svg xmlns="http://www.w3.org/2000/svg" width="19" height="17" viewBox="0 0 19 17">
    <g fill="none" fill-rule="evenodd">
        <path d="M0-2h20v20H0z"/>
        <path fill="#4F4F4F" fill-rule="nonzero" d="M1.2 5.2v10.6h1.6V5.2H1.2zm5 10.6h1.6V1.2H6.2v14.6zM.5 4h3a.5.5 0 0 1 .5.5v12a.5.5 0 0 1-.5.5h-3a.5.5 0 0 1-.5-.5v-12A.5.5 0 0 1 .5 4zm5-4h3a.5.5 0 0 1 .5.5v16a.5.5 0 0 1-.5.5h-3a.5.5 0 0 1-.5-.5V.5a.5.5 0 0 1 .5-.5zm5.7 8.2v7.6h1.6V8.2h-1.6zm5 7.6h1.6v-3.6h-1.6v3.6zM10.5 7h3a.5.5 0 0 1 .5.5v9a.5.5 0 0 1-.5.5h-3a.5.5 0 0 1-.5-.5v-9a.5.5 0 0 1 .5-.5zm5 4h3a.5.5 0 0 1 .5.5v5a.5.5 0 0 1-.5.5h-3a.5.5 0 0 1-.5-.5v-5a.5.5 0 0 1 .5-.5z"/>
    </g>
</svg>
