<svg xmlns="http://www.w3.org/2000/svg" width="20" height="18" viewBox="0 0 20 18">
    <g fill="none" fill-rule="evenodd">
        <path d="M0-1h20v20H0z"/>
        <path fill="#4F4F4F" fill-rule="nonzero" d="M18.242 0c-.97 0-1.758.807-1.758 1.8v.731l-13.12 3.34a1.759 1.759 0 0 0-1.606-1.07C.788 4.8 0 5.607 0 6.6v4.8c0 .992.789 1.8 1.758 1.8.716 0 1.333-.442 1.606-1.072l1.022.26c-.1.16-.174.338-.22.528-.235.963.338 1.942 1.278 2.182l4.09 1.047c.938.242 1.895-.34 2.132-1.31.048-.195.062-.391.047-.582l4.771 1.215v.731c0 .993.789 1.8 1.758 1.8.97 0 1.758-.807 1.758-1.8V1.8c0-.993-.789-1.8-1.758-1.8zM2.344 11.4c0 .33-.263.6-.586.6a.594.594 0 0 1-.586-.6V6.6c0-.33.263-.6.586-.6.323 0 .586.27.586.6v4.8zm8.186 3.145a.585.585 0 0 1-.711.437l-4.09-1.047a.602.602 0 0 1-.427-.727.592.592 0 0 1 .521-.453l4.438 1.13a.607.607 0 0 1 .269.66zm5.954-.312L3.516 10.93V7.069l12.968-3.301v10.465zm2.344 1.967c0 .33-.263.6-.586.6a.594.594 0 0 1-.586-.6V1.8c0-.33.263-.6.586-.6.323 0 .586.27.586.6v14.4z"/>
    </g>
</svg>
