<svg xmlns="http://www.w3.org/2000/svg" width="17" height="19" viewBox="0 0 17 19">
    <path fill="#4F4F4F" fill-rule="evenodd" d="M14.902 17.152V7.098H2.098v10.054h12.804zm0-14.652c.516 0 .953.179 1.31.537.359.358.538.795.538 1.31v12.805c0 .516-.179.953-.537 1.31a1.783 1.783 0 0 1-1.31.538H2.097c-.516 0-.953-.179-1.31-.537a1.783 1.783 0 0 1-.538-1.31V4.347c0-.516.172-.953.516-1.31.343-.359.787-.538 1.332-.538H3V.652h1.848V2.5h7.304V.652H14V2.5h.902zm-2.234 7.39l-5.457 5.458-2.922-2.922.988-.989 1.934 1.934 4.469-4.469.988.989z"/>
</svg>
