<svg xmlns="http://www.w3.org/2000/svg" width="18" height="17" viewBox="0 0 18 17">
    <path fill="#4F4F4F" fill-rule="evenodd" d="M17.25 7.848H9.902V.5c2.091.057 3.825.773 5.2 2.148s2.09 3.108 2.148 5.2zm-1.848 1.804c0 1.29-.293 2.464-.88 3.524a7.608 7.608 0 0 1-2.385 2.62L8.613 9.653h6.79zM8.098 17c-1.29 0-2.464-.294-3.524-.88a7.608 7.608 0 0 1-2.62-2.386l5.972-3.437 3.437 5.93A7.035 7.035 0 0 1 8.098 17zM.75 9.652c.057-2.062.773-3.788 2.148-5.177 1.375-1.39 3.109-2.099 5.2-2.127v6.789l-6.575 3.781C1.008 11.944.75 10.855.75 9.652z"/>
</svg>
