<svg xmlns="http://www.w3.org/2000/svg" width="38" height="40" viewBox="0 0 38 40">
    <g fill="#82989F" fill-rule="nonzero">
        <path d="M37.14 38.438h-1.713v-24.88c0-1.159-.942-2.1-2.1-2.1h-3.83c-1.158 0-2.1.942-2.1 2.1v24.88h-4.351V24.83c0-1.158-.942-2.1-2.1-2.1h-3.83c-1.158 0-2.1.942-2.1 2.1v13.608h-4.351V31.39c0-1.158-.943-2.1-2.1-2.1h-3.83c-1.159 0-2.1.942-2.1 2.1v7.047H.827a.781.781 0 1 0 0 1.563h36.313a.781.781 0 1 0 0-1.563zm-28.038 0H4.197V31.39c0-.296.24-.537.537-.537h3.83c.297 0 .538.24.538.537v7.047zm12.381 0h-4.905V24.83c0-.296.241-.538.538-.538h3.83c.296 0 .537.242.537.538v13.608zm12.382 0h-4.906v-24.88c0-.297.241-.538.538-.538h3.83c.296 0 .538.241.538.537v24.88zM35.425.822a.779.779 0 0 0-.82-.82L34.568 0H29.84a.781.781 0 1 0 0 1.563h2.919l-7.724 7.723-2.912-2.913a.781.781 0 0 0-1.105 0L6.975 20.418a.781.781 0 0 0 1.104 1.105L21.571 8.03l2.913 2.913c.305.305.8.305 1.105 0l8.276-8.276V5.31a.781.781 0 1 0 1.562 0V.859l-.002-.037z"/>
        <circle cx="4.894" cy="23.696" r="1"/>
    </g>
</svg>
