<svg xmlns="http://www.w3.org/2000/svg" width="46" height="40" viewBox="0 0 46 40">
    <g fill="#82989F" fill-rule="nonzero">
        <path d="M28.13 29.436h-2.507a.67.67 0 0 0 0 1.34h2.506a.67.67 0 1 0 0-1.34z"/>
        <path d="M42.88 22.267l-3.647-1.406-1.86-1.86a.667.667 0 0 0-.43-.194v-1.479a6.906 6.906 0 0 0 1.752-3.45c.156.007.314-.006.47-.037.89-.183 1.537-1.01 1.537-1.966v-.488c0-.554-.224-1.061-.59-1.425.592-3.216.105-5.837-1.414-7.59C37.228.674 34.86-.137 31.852.025c-2.78.15-4.575 1.43-5.143 1.898a3.528 3.528 0 0 0-1.378.468c-.744.446-1.63 1.384-1.63 3.315 0 1.685.269 3.092.464 3.89-.654.318-1.091 1.008-1.091 1.797v.48c0 .957.647 1.784 1.538 1.966.155.032.313.045.47.038a6.907 6.907 0 0 0 1.75 3.45v1.48a.666.666 0 0 0-.43.194l-1.859 1.859-3.646 1.406c-.316.122-.617.28-.896.469a.67.67 0 0 0 .753 1.108c.194-.132.405-.242.625-.327l3.384-1.306 2.588 3.882a1.916 1.916 0 0 0 2.544.606l-.555 12.596a.67.67 0 1 0 1.338.059l.515-11.691h1.39l.515 11.69a.67.67 0 1 0 1.339-.058l-.556-12.596a1.911 1.911 0 0 0 1.134.24 1.916 1.916 0 0 0 1.41-.846l2.588-3.882 3.384 1.306c.475.183.883.475 1.205.84l-2.316 2.314a4.4 4.4 0 0 0-1.297 3.132v9.521a.67.67 0 0 0 1.34 0v-9.521c0-.825.32-1.601.904-2.185l2.032-2.031c.082.299.12.614.107.935l-.518 12.775a.67.67 0 0 0 1.338.055l.519-12.775a4.427 4.427 0 0 0-2.832-4.31zm-16.488-8.665c-.118-.643-.713-1.11-1.356-1.063a.574.574 0 0 1-.156-.01c-.266-.055-.467-.336-.467-.654v-.48c0-.312.208-.591.473-.638a.582.582 0 0 1 .573.22.938.938 0 0 0 1.283.201 4.862 4.862 0 0 0 1.098-1.074.67.67 0 1 0-1.074-.799c-.155.208-.33.397-.522.564a1.916 1.916 0 0 0-.726-.388 15.401 15.401 0 0 1-.478-3.774c0-1.026.316-1.746.94-2.142.486-.309 1-.32 1-.321a.676.676 0 0 0 .462-.185c.017-.015 1.663-1.543 4.482-1.695 2.58-.14 4.573.512 5.761 1.884 1.198 1.383 1.597 3.506 1.164 6.164a2.902 2.902 0 0 0-.571.04l-.63-1.511a.67.67 0 0 0-.787-.39c-.062.016-6.246 1.583-8.84-1.645a.67.67 0 1 0-1.043.839c2.648 3.296 7.901 2.58 9.65 2.23l.487 1.168a1.1 1.1 0 0 0 1.272.652c.216-.051.423-.052.5-.037.272.054.476.324.476.629v.488c0 .318-.2.599-.467.653a.568.568 0 0 1-.156.01 1.304 1.304 0 0 0-1.356 1.064 5.586 5.586 0 0 1-5.496 4.577 5.586 5.586 0 0 1-5.496-4.577zm2.97 11.837a.575.575 0 0 1-.47.168.575.575 0 0 1-.427-.257l-2.607-3.91 1.049-1.048 4.001 3.501-1.545 1.546zm1.89.884l.04-.92.596-.595.595.595.04.92h-1.271zm.636-3.352l-3.716-3.252v-1.281a6.91 6.91 0 0 0 3.716 1.08 6.91 6.91 0 0 0 3.716-1.08v1.281l-3.716 3.252zm3.423 2.379a.575.575 0 0 1-.428.257.575.575 0 0 1-.47-.168l-1.545-1.546 4.002-3.501 1.048 1.048-2.607 3.91z"/>
        <path d="M21.236 25.777l-3.27-1.428-1.787-1.787a.666.666 0 0 0-.43-.194v-1.054a6.916 6.916 0 0 0 3.004-4.502c.176.008.354-.01.529-.05.857-.203 1.478-1.025 1.478-1.953v-.488c0-.679-.336-1.289-.858-1.647.154-.608.232-1.23.232-1.855 0-2.775-1.5-5.218-3.76-6.621-.024-2.316-2-4.192-4.428-4.192-2.427 0-4.403 1.876-4.427 4.192-2.26 1.403-3.76 3.847-3.76 6.62 0 .625.078 1.245.23 1.85-.521.357-.857.97-.857 1.66v.48c0 .93.622 1.75 1.48 1.953.174.042.352.059.528.05a6.916 6.916 0 0 0 3.004 4.503v1.054a.666.666 0 0 0-.43.194L5.927 24.35l-3.27 1.428a4.457 4.457 0 0 0-2.653 4.246l.395 9.33a.67.67 0 0 0 1.339-.057l-.396-9.33a3.083 3.083 0 0 1 .425-1.686l1.757 2.109c.556.666.861 1.511.861 2.379v6.556a.67.67 0 0 0 1.34 0v-6.556c0-1.18-.417-2.33-1.172-3.236l-1.869-2.243c.16-.11.328-.206.509-.285l2.85-1.244 2.013 3.269a1.294 1.294 0 0 0 1.945.306l1.276-1.089v11.078a.67.67 0 0 0 1.34 0V28.246l1.275 1.09a1.294 1.294 0 0 0 1.945-.307l2.014-3.269 2.85 1.244c.18.079.349.176.508.285l-1.869 2.243a5.065 5.065 0 0 0-1.172 3.236v6.557a.67.67 0 0 0 1.34 0v-6.557c0-.868.306-1.713.861-2.38l1.758-2.108c.293.502.45 1.085.424 1.686l-.395 9.33a.67.67 0 0 0 1.338.057l.395-9.33a4.457 4.457 0 0 0-2.653-4.246zm-9.29-24.432c1.425 0 2.627.909 2.983 2.14a8.431 8.431 0 0 0-2.982-.54 8.431 8.431 0 0 0-2.983.54c.356-1.231 1.558-2.14 2.983-2.14zm-5.495 15.19c-.119-.642-.715-1.11-1.356-1.062a.578.578 0 0 1-.175-.015c-.256-.06-.448-.34-.448-.65v-.48c0-.31.207-.59.472-.637a.582.582 0 0 1 .573.22.94.94 0 0 0 1.283.202 4.857 4.857 0 0 0 1.084-1.056.67.67 0 1 0-1.07-.804 3.55 3.55 0 0 1-.511.55 1.919 1.919 0 0 0-1.01-.445 6.237 6.237 0 0 1-.195-1.54c0-3.603 3.072-6.534 6.849-6.534 3.776 0 6.848 2.931 6.848 6.535 0 .518-.065 1.032-.193 1.536a3.072 3.072 0 0 0-.521.086l-.504-.414a1.286 1.286 0 0 0-.893-.293c-.985.058-6.026.191-8.612-2.904a.67.67 0 0 0-1.028.859c1.276 1.526 3.147 2.559 5.56 3.068a16.39 16.39 0 0 0 4.136.315l.785.646c.216.178.52.203.762.062.113-.062.494-.121.66-.088.27.054.474.324.474.629v.488c0 .31-.192.589-.448.649a.573.573 0 0 1-.174.015 1.305 1.305 0 0 0-1.357 1.063 5.586 5.586 0 0 1-5.495 4.577 5.587 5.587 0 0 1-5.496-4.577zM9.17 28.285l-2.014-3.27 1.032-1.031 2.773 2.773-1.791 1.528zm2.777-2.437l-2.463-2.462v-1.386a6.911 6.911 0 0 0 4.925 0v1.386l-2.462 2.462zm2.776 2.437l-1.79-1.528 2.773-2.773 1.031 1.031-2.014 3.27z"/>
        <path d="M9.44 32.39H7.562a.67.67 0 0 0 0 1.34h1.88a.67.67 0 0 0 0-1.34z"/>
    </g>
</svg>
