<svg xmlns="http://www.w3.org/2000/svg" width="33" height="40" viewBox="0 0 33 40">
    <g fill="#8EA2A8" fill-rule="nonzero">
        <path d="M17.737 36.227c0 1.151-1.074 2.088-2.395 2.088-1.32 0-2.395-.937-2.395-2.088 0-.465-.432-.842-.966-.842s-.966.377-.966.842c0 2.08 1.941 3.773 4.327 3.773s4.328-1.693 4.328-3.773c0-.465-.433-.842-.967-.842-.533 0-.966.377-.966.842zM.933 32.011A.925.925 0 0 0 0 32.93c0 .506.418.917.933.917h30.392c.515 0 .933-.41.933-.917a.925.925 0 0 0-.933-.918H29.77v-14.93c0-7.087-5.62-12.906-12.708-13.38V.918A.925.925 0 0 0 16.13 0a.925.925 0 0 0-.933.917v2.785C8.108 4.175 2.488 9.994 2.488 17.08v14.93H.933zm3.422-3.17h20.749c.515 0 .933-.41.933-.917a.925.925 0 0 0-.933-.917H4.354v-9.926c0-6.383 5.283-11.576 11.775-11.576s11.774 5.193 11.774 11.576v14.93H4.355v-3.17z"/>
    </g>
</svg>
