<svg xmlns="http://www.w3.org/2000/svg" width="36" height="36" viewBox="0 0 36 36">
    <path fill="#82989F" fill-rule="nonzero" d="M29.413 0c-4.34 0-7.554 2.502-10.392 4.71-2.286 1.78-4.446 3.46-6.766 3.46H3.268C1.023 8.17 0 12.405 0 16.34c0 3.936 1.023 8.17 3.268 8.17h1.835l2.59 9.068a3.283 3.283 0 0 0 3.143 2.37h4.423a2.719 2.719 0 0 0 2.715-2.715v-.287a2.719 2.719 0 0 0-2.715-2.716c-.467 0-.88-.298-1.028-.74l-1.65-4.95c2.197.147 4.261 1.735 6.44 3.43 2.838 2.209 6.053 4.71 10.392 4.71 4.245 0 6.536-8.418 6.536-16.34 0-7.92-2.29-16.34-6.536-16.34zM3.268 22.877c-.42 0-1.634-2.248-1.634-6.537 0-4.288 1.214-6.536 1.634-6.536h7.742c-.818 1.593-1.206 4.12-1.206 6.536 0 2.418.388 4.944 1.206 6.537H3.268zm9.413 7.13a2.713 2.713 0 0 0 2.577 1.857c.597 0 1.082.485 1.082 1.082v.287c0 .597-.485 1.082-1.082 1.082h-4.422a1.64 1.64 0 0 1-1.571-1.185l-2.463-8.62h4.048l1.831 5.496zm7.344-3.326c-2.271-1.768-4.433-3.433-6.953-3.74v-.064c-.42 0-1.634-2.248-1.634-6.537 0-4.288 1.215-6.536 1.634-6.536V9.74c2.52-.308 4.682-1.973 6.953-3.74 1.849-1.44 3.747-2.895 5.932-3.709-2.017 3.041-3.08 8.658-3.08 14.05 0 5.391 1.063 11.008 3.08 14.049-2.185-.814-4.083-2.27-5.932-3.71zm4.614-13.596a3.265 3.265 0 0 1 3.14 3.255 3.265 3.265 0 0 1-3.14 3.255 41.255 41.255 0 0 1 0-6.51zm4.774 17.962c-1.853 0-3.87-3.863-4.609-9.834 2.565-.156 4.609-2.27 4.609-4.873 0-2.602-2.044-4.717-4.609-4.872.738-5.971 2.756-9.834 4.609-9.834 2.318 0 4.902 6.04 4.902 14.706 0 8.667-2.584 14.707-4.902 14.707z"/>
</svg>
