<svg xmlns="http://www.w3.org/2000/svg" width="38" height="40" viewBox="0 0 38 40">
    <path fill="#8EA2A8" fill-rule="nonzero" d="M29.938 16.667l7.184-10.29a.66.66 0 0 0 .042-.688.68.68 0 0 0-.6-.356H16.251V2.667A.671.671 0 0 0 15.574 2H1.354V.667A.671.671 0 0 0 .677 0 .671.671 0 0 0 0 .667v38.666c0 .369.303.667.677.667a.671.671 0 0 0 .677-.667V22.667H8.82a3.266 3.266 0 0 0-.695 2c0 1.838 1.52 3.333 3.386 3.333h25.053a.68.68 0 0 0 .6-.356.658.658 0 0 0-.042-.688l-7.184-10.29zM1.354 3.333h13.543v18H1.354v-18zm10.157 23.334c-1.12 0-2.031-.898-2.031-2 0-1.103.911-2 2.031-2h4.063A.671.671 0 0 0 16.25 22V6.667h19.026l-6.719 9.622a.66.66 0 0 0 0 .756l6.72 9.622H11.51z"/>
</svg>
