<svg xmlns="http://www.w3.org/2000/svg" width="28" height="40" viewBox="0 0 28 40">
    <g fill="#818F9D" fill-rule="nonzero">
        <path d="M20.11 28.72l-12.623-.004a.607.607 0 0 1-.602-.534c-.147-1.239-.58-2.988-1.817-4.274A13.52 13.52 0 0 1 .25 13.55C.25 6.08 6.33 0 13.8 0c7.47 0 13.55 6.079 13.55 13.55 0 4.026-1.777 7.817-4.872 10.402-1.188 1.243-1.621 2.993-1.768 4.233a.603.603 0 0 1-.6.535zM8.012 27.504l11.57.004c.227-1.366.776-3.093 2.07-4.441 2.868-2.4 4.485-5.852 4.485-9.518C26.137 6.747 20.604 1.212 13.8 1.212c-6.804 0-12.337 5.535-12.337 12.338a12.31 12.31 0 0 0 4.435 9.47.6.6 0 0 1 .097.102c1.257 1.339 1.794 3.036 2.018 4.382zM20.11 32.385H7.486a.606.606 0 0 1 0-1.212H20.11a.606.606 0 0 1 0 1.212zM20.11 36.053H7.486a.606.606 0 0 1 0-1.212H20.11a.606.606 0 0 1 0 1.212zM16.441 39.722h-5.285a.606.606 0 0 1 0-1.212h5.285a.606.606 0 0 1 0 1.212z"/>
    </g>
</svg>
