<svg xmlns="http://www.w3.org/2000/svg" width="36" height="30" viewBox="0 0 36 30">
    <path fill="#82989F" fill-rule="evenodd" d="M8 .96c4.48 0 7.16 3.08 7.16 8.28 0 5.24-2.68 8.28-7.16 8.28S.88 14.48.88 9.24C.88 4.04 3.52.96 8 .96zM5.72 29L26.68 1h3.08L8.84 29H5.72zM8 2.96c-3.16 0-4.92 2.28-4.92 6.28S4.84 15.48 8 15.48s4.92-2.24 4.92-6.24S11.16 2.96 8 2.96zm19.96 9.56c4.48 0 7.16 3.04 7.16 8.24 0 5.24-2.68 8.28-7.16 8.28s-7.12-3.04-7.12-8.28c0-5.2 2.64-8.24 7.12-8.24zm0 2c-3.16 0-4.92 2.24-4.92 6.24 0 4.04 1.76 6.28 4.92 6.28s4.92-2.24 4.92-6.28c0-4-1.76-6.24-4.92-6.24z"/>
</svg>
