<svg xmlns="http://www.w3.org/2000/svg" width="42" height="50" viewBox="0 0 42 50">
    <g fill="#66C05F" fill-rule="nonzero">
        <path d="M3.231 41.494L.573 50h40.903l-2.66-8.507c-1.123-3.599-4.257-6.294-7.96-6.863l-3.38-.624v-1.367a11.31 11.31 0 0 0 4.585-6.889c1.96-.273 3.48-1.942 3.48-3.976v-7.258C35.54 6.512 29.027 0 21.023 0A14.541 14.541 0 0 0 8.625 6.98C3.671 8.494.056 13.105.056 18.548c0 5.255 3.375 9.725 8.065 11.392v5.717a9.952 9.952 0 0 0-4.89 5.837zm11.342 4.474a2.422 2.422 0 0 1-2.42 2.42 2.422 2.422 0 0 1-2.42-2.42V33.87h4.84v12.097zm0-13.71h-4.84v-1.856a12.145 12.145 0 0 0 4.84 0v1.856zm16.015 3.962a8.39 8.39 0 0 1 6.69 5.753l2.004 6.414h-6.255l-.719-5.745-1.6.2.693 5.545H15.358a3.99 3.99 0 0 0 .827-2.42v-9.04c1.023.9 2.596 1.783 4.84 1.783 3.473 0 5.343-2.118 6.042-3.14l3.52.65zm-14.403-1.753v-.882a11.204 11.204 0 0 0 9.677-.012v.892a5.613 5.613 0 0 1-4.838 2.632 5.588 5.588 0 0 1-4.839-2.63zm14.517-11.08c0 5.336-4.342 9.678-9.678 9.678a9.643 9.643 0 0 1-4.839-1.302v-1.824c.65-.23 1.276-.508 1.87-.841a6.427 6.427 0 0 0 2.97.74 6.46 6.46 0 0 0 6.45-6.45h-1.612a4.844 4.844 0 0 1-4.839 4.838c-.468 0-.93-.07-1.374-.202 2.797-2.218 4.6-5.637 4.6-9.476 0-.62-.061-1.224-.152-1.819 2.632-.535 4.814-1.306 6.604-2.34v8.998zm1.579.669c.013-.223.034-.443.034-.669v-3.884a2.416 2.416 0 0 1 1.612 2.271 2.415 2.415 0 0 1-1.646 2.282zM21.024 1.613c7.115 0 12.903 5.789 12.903 12.903v4.053a3.993 3.993 0 0 0-1.612-.745v-6.51l-1.283.94c-1.813 1.327-4.206 2.275-7.276 2.896-1.474-5.02-6.113-8.698-11.603-8.698-.42 0-.835.021-1.245.063a12.928 12.928 0 0 1 10.116-4.902zM1.67 18.548c0-5.78 4.704-10.483 10.484-10.483s10.484 4.703 10.484 10.483c0 5.781-4.703 10.484-10.484 10.484-5.78 0-10.484-4.703-10.484-10.484zm7.28 29.84H2.765l2.005-6.415a8.347 8.347 0 0 1 3.35-4.447v8.442c0 .911.315 1.743.827 2.42z"/>
        <path d="M26.266 20.968a2.018 2.018 0 0 0 2.016-2.016 2.018 2.018 0 0 0-2.016-2.017 2.018 2.018 0 0 0-2.016 2.017c0 1.112.905 2.016 2.016 2.016zm0-2.42a.404.404 0 1 1-.001.808.404.404 0 0 1 .001-.808zM21.024 18.548c0-1.786-.529-3.51-1.53-4.983l-1.334.908c.29.425.513.884.705 1.355-2.343.203-5.079.301-8.325.301h-.806v1.694c-.6.123-1.142.39-1.613.746v-4.053c0-.708.064-1.415.177-2.106a7.207 7.207 0 0 1 3.855-1.12c1.966 0 3.805.773 5.18 2.175l1.152-1.129a8.803 8.803 0 0 0-6.332-2.659c-4.89 0-8.87 3.98-8.87 8.871 0 4.892 3.98 8.871 8.87 8.871 4.891 0 8.871-3.98 8.871-8.87zm-16.129 0c0-1.738.615-3.333 1.637-4.584-.006.184-.024.367-.024.552v7.258c0 .675.182 1.303.477 1.862a7.23 7.23 0 0 1-2.09-5.088zm3.226 3.226c0-1.05.677-1.937 1.613-2.27v3.883c0 .223.013.444.026.666a2.415 2.415 0 0 1-1.639-2.279zm7.661-3.226a.404.404 0 1 1-.001.808.404.404 0 0 1 .001-.808zm-4.435 4.84V17.74c1.008-.005 1.96-.022 2.873-.047-.28.346-.454.78-.454 1.259 0 1.112.905 2.016 2.016 2.016a2.018 2.018 0 0 0 2.016-2.016c0-.54-.215-1.027-.56-1.39a69.197 69.197 0 0 0 2.079-.156c.06.375.094.757.094 1.142a7.25 7.25 0 0 1-3.097 5.938 4.854 4.854 0 0 1-.129-1.099h-1.612c0 .65.1 1.282.287 1.89a7.2 7.2 0 0 1-2.707.53c-.17 0-.336-.014-.503-.026a9.683 9.683 0 0 1-.303-2.394z"/>
    </g>
</svg>
