<svg xmlns="http://www.w3.org/2000/svg" width="50" height="50" viewBox="0 0 50 50">
    <g fill="#66C05F" fill-rule="nonzero">
        <path d="M49.116 22.921c-.83-12.184-10.646-22-22.83-22.83L25.41.03v23.766h23.765l-.06-.876zm-22.067-.764V1.802a22.68 22.68 0 0 1 5.817 1.42c-.003.029-.016.053-.016.083 0 .452.367.82.82.82a.81.81 0 0 0 .611-.287 23.141 23.141 0 0 1 9.797 8.719.82.82 0 1 0 .248.584.816.816 0 0 0-.06-.298c.42.697.794 1.423 1.139 2.164a.813.813 0 0 0-.26.593c0 .452.367.82.82.82.017 0 .032-.01.05-.01a22.692 22.692 0 0 1 1.39 5.747H27.049zM25.67 25.436L42.143 41.91l.58-.628a24.634 24.634 0 0 0 6.455-14.97l.06-.875H25.67zm16.414 14.096L29.628 27.075h17.838a23.016 23.016 0 0 1-5.382 12.457z"/>
        <circle cx="28.751" cy="3.305" r="1"/>
        <circle cx="28.751" cy="8.223" r="1"/>
        <circle cx="31.21" cy="5.764" r="1"/>
        <circle cx="36.128" cy="5.764" r="1"/>
        <circle cx="33.669" cy="8.223" r="1"/>
        <circle cx="38.587" cy="8.223" r="1"/>
        <circle cx="41.046" cy="10.682" r="1"/>
        <circle cx="31.21" cy="10.682" r="1"/>
        <circle cx="36.128" cy="10.682" r="1"/>
        <circle cx="41.046" cy="15.6" r="1"/>
        <circle cx="43.505" cy="18.059" r="1"/>
        <circle cx="28.751" cy="13.141" r="1"/>
        <circle cx="28.751" cy="18.059" r="1"/>
        <circle cx="31.21" cy="15.6" r="1"/>
        <circle cx="36.128" cy="15.6" r="1"/>
        <circle cx="33.669" cy="13.141" r="1"/>
        <circle cx="38.587" cy="13.141" r="1"/>
        <circle cx="33.669" cy="18.059" r="1"/>
        <circle cx="38.587" cy="18.059" r="1"/>
        <circle cx="45.964" cy="20.518" r="1"/>
        <circle cx="41.046" cy="20.518" r="1"/>
        <circle cx="31.21" cy="20.518" r="1"/>
        <circle cx="36.128" cy="20.518" r="1"/>
        <path d="M23.77.031l-.875.06C10.057.965 0 11.738 0 24.615A24.573 24.573 0 0 0 6.05 40.76l.576.662L23.77 24.277V.031zm-1.639 23.567L6.721 39.01a22.932 22.932 0 0 1-5.082-14.393c0-11.723 8.931-21.58 20.492-22.814v21.796zM7.785 42.58l.663.577a24.57 24.57 0 0 0 16.142 6.05 24.622 24.622 0 0 0 15.604-5.596l.698-.573L24.11 26.256 7.785 42.58zM24.11 28.574l.902.902-13.777 13.776c-.349-.25-.701-.495-1.037-.765L24.11 28.574zm-6.735 17.813c-.57-.19-1.13-.403-1.682-.636L28.49 32.953l1.16 1.16-12.275 12.274zm13.433-11.115l1.16 1.16L21.11 47.287c-.651-.1-1.297-.227-1.936-.383l11.633-11.633zm-16.694 9.74a22.74 22.74 0 0 1-1.484-.836l13.541-13.54 1.16 1.16L14.114 45.01zm9.095 2.496l9.917-9.918 1.16 1.16-8.78 8.78c-.305.012-.61.037-.916.037-.462 0-.921-.03-1.381-.059zm12.235-7.599l1.16 1.16-5.543 5.543c-.984.29-1.983.524-3 .68l7.383-7.383zm-.559 5.197l2.879-2.879.679.679a22.865 22.865 0 0 1-3.558 2.2z"/>
    </g>
</svg>
