<svg xmlns="http://www.w3.org/2000/svg" width="60" height="60" viewBox="0 0 60 60">
    <g fill="#66C05F" fill-rule="nonzero">
        <path d="M59.528 21.853l-3.395-2.52V4.747a.879.879 0 0 0-.879-.88h-19.99C35.23 3.833 30.465.29 30.465.29a.879.879 0 0 0-1.047 0l-4.821 3.577H4.629a.879.879 0 0 0-.88.879v14.588L.356 21.853a.886.886 0 0 0-.355.705v36.563c0 .486.394.879.879.879h58.125a.889.889 0 0 0 .88-.879V22.56a.907.907 0 0 0-.356-.706zm-3.395-.33l1.315.976-1.315.827v-1.803zM29.942 2.09l2.394 1.777h-4.79l2.396-1.777zM5.508 5.625h48.867v18.807L51.3 26.367h-8.525a.879.879 0 1 0 0 1.758h5.73L29.942 39.802 11.379 28.125h27.176a.879.879 0 1 0 0-1.758H8.585l-3.077-1.935V5.625zM3.75 21.523v1.803L2.435 22.5l1.315-.976zm-1.992 36.72V24.15l54.198 34.092H1.758zm56.367-.713L31.592 40.84l26.533-16.69v33.38z"/>
        <path d="M48.692 10.43h-7.5a.879.879 0 0 0-.88.878v9.376c0 .485.394.878.88.878h7.5a.879.879 0 0 0 .879-.878v-9.376a.879.879 0 0 0-.88-.879zm-.88 9.375h-5.741v-7.618h5.742v7.618zM37.442 10.43h-26.25a.879.879 0 0 0 0 1.757h26.25a.879.879 0 1 0 0-1.758zM25.313 15.117H11.19a.879.879 0 0 0 0 1.758h14.122a.879.879 0 0 0 0-1.758zM37.442 15.117h-8.438a.879.879 0 0 0 0 1.758h8.438a.879.879 0 1 0 0-1.758zM30 19.805H11.191a.879.879 0 0 0 0 1.757h18.81a.879.879 0 1 0 0-1.757zM37.442 19.805h-3.75a.879.879 0 1 0 0 1.757h3.75a.879.879 0 1 0 0-1.757zM39.317 30.117h-4.688a.879.879 0 1 0 0 1.758h4.688a.879.879 0 1 0 0-1.758zM30.88 30.117H20.566a.879.879 0 0 0 0 1.758h10.312a.879.879 0 1 0 0-1.758zM29.004 34.805h-3.75a.879.879 0 0 0 0 1.757h3.75a.879.879 0 0 0 0-1.757zM33.692 34.805h-1.875a.879.879 0 1 0 0 1.757h1.875a.879.879 0 1 0 0-1.757z"/>
    </g>
</svg>
