<svg xmlns="http://www.w3.org/2000/svg" width="42" height="60" viewBox="0 0 42 60">
    <g fill="#66C05F" fill-rule="nonzero">
        <path d="M21.335 13.09c-4.21 0-7.636 3.427-7.636 7.637 0 4.21 3.426 7.637 7.636 7.637s7.636-3.427 7.636-7.637c0-4.21-3.426-7.636-7.636-7.636zm0 13.092a5.46 5.46 0 0 1-5.455-5.455 5.46 5.46 0 0 1 5.455-5.454 5.46 5.46 0 0 1 5.454 5.454 5.46 5.46 0 0 1-5.454 5.455z"/>
        <path d="M35.935 6.128A20.784 20.784 0 0 0 21.142 0 20.782 20.782 0 0 0 6.349 6.128c-7.312 7.31-8.221 21.067-1.968 29.402l16.76 24.205 16.736-24.171c6.279-8.369 5.37-22.125-1.942-29.436zm.173 28.16L21.142 55.901 6.152 34.255C.48 26.692 1.292 14.269 7.892 7.67a18.614 18.614 0 0 1 13.25-5.488c5.005 0 9.71 1.95 13.25 5.488 6.6 6.6 7.413 19.022 1.716 26.618z"/>
    </g>
</svg>
